<?xml version="1.0" standalone="no"?>
<!DOCTYPE svg PUBLIC "-//W3C//DTD SVG 20010904//EN"
 "http://www.w3.org/TR/2001/REC-SVG-20010904/DTD/svg10.dtd">
<svg version="1.0" xmlns="http://www.w3.org/2000/svg"
 width="500.000000pt" height="458.000000pt" viewBox="0 0 600.000000 569.000000"
 preserveAspectRatio="xMidYMid meet">

<g transform="translate(0.000000,569.000000) scale(0.100000,-0.100000)"
fill="#FFD917" stroke="none">
<path d="M1592 5605 c-13 -15 -55 -20 -123 -16 -25 1 -41 -4 -54 -19 -12 -13
-31 -20 -55 -20 -20 0 -41 -5 -48 -12 -7 -7 -31 -14 -55 -15 -77 -5 -147 -24
-147 -39 0 -11 -7 -10 -36 5 -32 17 -39 18 -58 6 -11 -8 -25 -14 -31 -14 -14
0 -18 -27 -7 -47 10 -18 -16 -94 -32 -94 -21 0 -76 -46 -76 -62 0 -10 5 -18
10 -18 6 0 10 -13 10 -28 0 -55 37 -66 100 -30 33 19 41 21 62 10 22 -12 48
-54 48 -77 0 -6 -11 -26 -25 -45 -30 -41 -31 -50 -5 -78 12 -13 17 -28 13 -39
-21 -59 -45 -102 -61 -107 -10 -4 -25 -18 -32 -31 -10 -18 -25 -27 -53 -32
-29 -4 -41 -12 -48 -30 -14 -36 -11 -71 7 -81 26 -15 17 -130 -14 -164 -8 -10
-25 -18 -38 -18 -12 0 -25 -6 -27 -12 -4 -10 -6 -9 -6 1 -2 28 -41 -21 -41
-51 0 -15 -4 -28 -8 -28 -11 0 -32 -69 -32 -107 0 -21 8 -33 30 -46 17 -10 35
-15 41 -11 6 3 17 -3 25 -15 10 -14 26 -21 49 -21 21 0 44 -9 63 -25 17 -14
37 -25 45 -25 23 0 33 -71 13 -86 -20 -14 -20 -43 -1 -70 12 -18 12 -24 -1
-43 -11 -15 -20 -19 -32 -13 -9 4 -28 7 -42 7 -21 0 -26 -5 -28 -35 -4 -38
-18 -61 -36 -59 -15 3 -48 -12 -64 -28 -7 -7 -20 -13 -28 -13 -8 0 -14 -8 -14
-18 0 -11 -9 -27 -19 -36 -11 -10 -21 -27 -23 -38 -2 -13 -17 -25 -43 -34 -22
-7 -48 -24 -57 -36 -10 -13 -33 -39 -52 -58 -46 -47 -96 -129 -96 -156 0 -15
10 -26 30 -34 37 -15 51 -39 43 -69 -7 -25 14 -71 33 -71 16 0 24 -23 17 -49
-3 -11 2 -39 11 -61 16 -40 16 -40 -9 -46 -37 -9 -57 12 -49 51 12 65 -61 166
-130 179 -31 6 -41 3 -61 -16 -13 -13 -30 -29 -37 -36 -7 -7 -21 -21 -30 -30
-10 -9 -18 -24 -18 -33 0 -11 -13 -20 -37 -26 -28 -6 -39 -14 -41 -31 -2 -12
-9 -22 -15 -22 -7 0 -25 -12 -40 -25 l-28 -25 25 -31 c15 -18 26 -43 26 -60 0
-16 7 -45 14 -64 8 -19 18 -69 22 -112 3 -42 15 -97 26 -122 11 -25 20 -66 20
-90 0 -35 17 -79 88 -220 48 -97 98 -201 110 -231 12 -30 42 -101 66 -156 24
-56 44 -105 44 -108 0 -4 11 -31 24 -59 59 -130 121 -306 190 -547 8 -25 20
-65 29 -90 65 -190 92 -329 67 -345 -7 -4 -5 -17 9 -38 20 -33 51 -129 51
-156 0 -9 -7 -25 -15 -35 -12 -16 -18 -17 -27 -8 -18 18 -28 15 -28 -8 0 -11
5 -20 11 -20 7 0 22 -11 35 -25 18 -20 34 -25 79 -27 53 -2 59 0 85 29 21 23
39 33 67 35 33 3 41 8 58 43 37 74 66 114 86 120 15 5 19 16 19 49 0 27 6 48
15 56 19 16 68 7 105 -20 39 -28 53 -25 102 20 38 35 48 39 84 36 50 -4 64
-12 64 -36 0 -10 6 -20 12 -22 8 -3 3 -14 -15 -30 -17 -16 -27 -36 -27 -54 -1
-33 -13 -52 -51 -76 -26 -17 -29 -39 -21 -155 2 -29 28 -30 37 -2 4 11 18 24
32 30 16 6 23 14 19 24 -3 8 -1 15 3 15 5 0 11 -7 15 -15 4 -12 17 -14 66 -8
62 6 65 5 61 -38 -1 -12 10 -18 46 -22 26 -4 58 -9 71 -13 15 -4 22 -2 22 8 0
48 66 38 114 -18 28 -32 35 -36 63 -30 17 4 37 14 44 22 6 8 28 14 48 14 20 0
58 7 85 15 26 8 52 13 56 10 5 -3 11 -23 15 -45 4 -22 12 -43 18 -47 7 -4 56
-9 110 -10 95 -2 100 -4 145 -37 62 -45 156 -60 181 -29 9 11 28 23 42 27 22
5 28 2 33 -18 3 -13 16 -26 28 -30 70 -18 296 7 345 39 14 9 46 39 72 66 26
27 52 49 58 49 6 0 25 11 41 25 16 13 47 27 70 31 24 4 53 18 72 36 l33 29 70
-17 c59 -14 72 -21 86 -47 9 -17 26 -40 39 -51 13 -12 35 -31 49 -43 14 -13
32 -23 39 -23 16 0 74 -33 74 -42 0 -13 29 -9 37 5 4 8 22 17 39 20 24 5 36 1
49 -13 10 -11 26 -20 36 -20 22 0 40 -30 29 -50 -4 -8 -10 -33 -12 -55 -5 -37
-2 -42 28 -62 18 -11 46 -24 63 -28 17 -4 32 -12 32 -18 6 -59 10 -82 18 -90
5 -5 40 -11 78 -12 37 -1 89 -6 115 -10 46 -7 46 -7 70 31 51 81 70 132 59
153 -6 11 -11 31 -11 45 0 22 -4 26 -30 26 -27 0 -90 24 -90 34 0 2 5 17 10
33 8 22 21 33 49 43 29 9 42 21 55 49 9 21 16 43 16 49 0 6 6 17 13 24 8 7 17
32 21 56 5 33 3 44 -9 48 -19 8 -19 23 1 45 13 15 14 24 6 49 -9 24 -8 30 4
30 8 0 34 18 58 40 43 40 44 42 51 121 5 54 12 82 21 86 17 6 18 55 2 71 -6 6
-12 47 -14 94 -2 90 -20 166 -46 195 -14 15 -16 39 -14 143 2 82 7 135 16 154
13 27 13 29 -13 48 -22 16 -27 27 -27 63 0 25 -5 45 -12 48 -9 3 -13 24 -12
58 1 80 11 106 45 118 16 5 29 15 29 20 0 6 6 11 13 11 8 0 34 20 59 45 32 31
54 45 74 45 30 0 136 73 133 93 -6 46 3 73 26 84 14 6 27 7 31 2 7 -13 104
-11 104 2 0 5 20 19 45 30 24 11 50 28 57 38 7 10 24 24 38 31 14 7 28 17 31
22 3 5 26 11 50 12 24 2 58 6 75 10 21 5 34 2 43 -8 10 -12 19 -12 68 1 32 8
70 12 86 9 39 -8 63 7 77 48 6 19 22 46 35 61 29 30 33 80 9 106 -25 27 -10
94 27 121 16 12 29 28 29 35 0 8 14 22 30 31 33 18 53 66 39 94 -5 9 -9 31 -9
48 0 68 -65 170 -109 170 -25 1 -81 40 -81 57 0 19 -62 99 -87 114 -26 14 -29
23 -39 107 -7 51 -17 104 -23 120 -6 15 -15 65 -21 112 -5 47 -16 125 -24 174
-13 77 -13 91 0 103 8 8 14 26 14 41 0 15 3 36 6 48 3 12 -1 27 -10 37 -9 8
-16 21 -16 27 0 6 -7 13 -15 17 -9 3 -22 21 -30 39 -8 19 -18 34 -23 34 -4 0
-35 25 -67 55 -50 47 -63 55 -97 55 -27 0 -50 -8 -74 -26 -31 -24 -38 -26 -72
-16 -20 6 -78 14 -129 18 -79 6 -94 4 -109 -11 -16 -16 -18 -15 -32 8 -14 22
-24 25 -105 32 -81 6 -91 5 -108 -13 -10 -11 -28 -27 -40 -35 -15 -11 -21 -25
-20 -54 0 -21 -6 -51 -13 -68 -8 -16 -19 -42 -25 -57 -7 -20 -20 -29 -45 -33
-19 -4 -53 -23 -75 -42 -30 -26 -46 -33 -62 -28 -26 9 -39 -8 -39 -52 0 -41
-25 -57 -56 -37 -29 20 -71 8 -91 -25 -9 -14 -24 -38 -34 -52 -10 -15 -21 -44
-25 -65 -3 -22 -8 -42 -10 -46 -7 -11 -59 20 -88 53 -25 28 -26 32 -12 48 18
19 22 81 6 81 -5 0 -10 5 -10 11 0 7 -7 17 -15 23 -12 9 -12 19 -4 51 22 81
22 99 0 119 -19 18 -21 48 -4 96 3 8 5 44 5 79 l0 64 -51 48 c-64 60 -100 68
-173 41 -79 -30 -120 -53 -145 -79 -25 -26 -53 -30 -53 -8 0 9 -8 19 -17 22
-23 9 -52 44 -53 63 0 8 -13 28 -30 43 -16 16 -30 33 -30 39 0 5 -7 16 -16 25
-18 19 -83 11 -100 -12 -6 -8 -18 -15 -27 -15 -9 0 -27 -5 -41 -11 -20 -10
-30 -9 -49 4 -13 8 -39 19 -58 22 -36 7 -79 59 -79 96 0 11 -11 24 -25 31 -14
6 -25 15 -25 20 0 4 -8 8 -19 8 -10 0 -24 7 -31 15 -7 8 -18 15 -25 15 -8 0
-23 16 -35 35 -12 19 -25 35 -29 35 -4 0 -26 16 -49 36 -32 27 -45 33 -59 26
-10 -5 -27 -7 -38 -5 -11 2 -35 4 -53 3 -22 0 -43 8 -63 24 -16 13 -52 32 -81
40 -50 15 -56 21 -98 89 -24 39 -52 78 -62 85 -10 7 -18 20 -18 28 0 8 -6 14
-13 14 -12 0 -30 33 -48 89 -5 15 -4 30 3 38 11 13 6 40 -30 161 -13 43 -20
52 -38 52 -12 0 -29 -6 -36 -12 -23 -21 -58 -39 -67 -34 -4 3 -25 -1 -47 -9
-27 -9 -45 -10 -57 -3 -13 7 -28 6 -48 -3 -36 -14 -60 0 -40 24 12 16 5 47
-11 47 -6 0 -8 6 -5 14 6 16 -19 30 -35 20 -5 -3 -22 -1 -38 6 -23 9 -34 9
-58 -4 -27 -14 -32 -14 -46 -1 -8 8 -21 15 -30 15 -15 0 -47 40 -59 73 -8 21
-27 22 -45 2z"/>
</g>
</svg>
