<svg width="2065" height="1277" xmlns="http://www.w3.org/2000/svg" xmlns:xlink="http://www.w3.org/1999/xlink" xml:space="preserve" overflow="hidden"><defs><clipPath id="clip0"><rect x="2531" y="6771" width="2065" height="1277"/></clipPath><clipPath id="clip1"><rect x="2532" y="6771" width="2062" height="1276"/></clipPath><clipPath id="clip2"><rect x="2532" y="6771" width="2062" height="1276"/></clipPath><clipPath id="clip3"><rect x="2797" y="6916" width="1430" height="931"/></clipPath><clipPath id="clip4"><rect x="2797" y="6916" width="1430" height="931"/></clipPath><clipPath id="clip5"><rect x="2797" y="6916" width="1430" height="931"/></clipPath><clipPath id="clip6"><rect x="2797" y="6916" width="1430" height="931"/></clipPath><clipPath id="clip7"><rect x="2797" y="6916" width="1430" height="931"/></clipPath><clipPath id="clip8"><rect x="2797" y="6916" width="1430" height="931"/></clipPath><clipPath id="clip9"><rect x="2532" y="6771" width="2062" height="1276"/></clipPath><clipPath id="clip10"><rect x="2532" y="6771" width="2062" height="1276"/></clipPath><clipPath id="clip11"><rect x="2532" y="6771" width="2062" height="1276"/></clipPath><clipPath id="clip12"><rect x="2532" y="6771" width="2062" height="1276"/></clipPath><clipPath id="clip13"><rect x="2532" y="6771" width="2062" height="1276"/></clipPath><clipPath id="clip14"><rect x="2532" y="6771" width="2062" height="1276"/></clipPath><clipPath id="clip15"><rect x="2532" y="6771" width="2062" height="1276"/></clipPath><clipPath id="clip16"><rect x="2532" y="6771" width="2062" height="1276"/></clipPath><clipPath id="clip17"><rect x="2532" y="6771" width="2062" height="1276"/></clipPath><clipPath id="clip18"><rect x="2532" y="6771" width="2062" height="1276"/></clipPath><clipPath id="clip19"><rect x="2532" y="6771" width="2062" height="1276"/></clipPath><clipPath id="clip20"><rect x="2532" y="6771" width="2062" height="1276"/></clipPath><clipPath id="clip21"><rect x="2532" y="6771" width="2062" height="1276"/></clipPath><clipPath id="clip22"><rect x="2532" y="6771" width="2062" height="1276"/></clipPath><clipPath id="clip23"><rect x="2532" y="6771" width="2062" height="1276"/></clipPath><clipPath id="clip24"><rect x="2532" y="6771" width="2062" height="1276"/></clipPath><clipPath id="clip25"><rect x="2532" y="6771" width="2062" height="1276"/></clipPath><clipPath id="clip26"><rect x="2532" y="6771" width="2062" height="1276"/></clipPath><clipPath id="clip27"><rect x="2532" y="6771" width="2062" height="1276"/></clipPath><clipPath id="clip28"><rect x="2532" y="6771" width="2062" height="1276"/></clipPath><clipPath id="clip29"><rect x="2532" y="6771" width="2062" height="1276"/></clipPath><clipPath id="clip30"><rect x="2532" y="6771" width="2062" height="1276"/></clipPath><clipPath id="clip31"><rect x="2532" y="6771" width="2062" height="1276"/></clipPath><clipPath id="clip32"><rect x="2532" y="6771" width="2062" height="1276"/></clipPath><clipPath id="clip33"><rect x="2532" y="6771" width="2062" height="1276"/></clipPath><clipPath id="clip34"><rect x="2532" y="6771" width="2062" height="1276"/></clipPath><clipPath id="clip35"><rect x="2532" y="6771" width="2062" height="1276"/></clipPath><clipPath id="clip36"><rect x="2532" y="6771" width="2062" height="1276"/></clipPath><clipPath id="clip37"><rect x="2532" y="6771" width="2062" height="1276"/></clipPath><clipPath id="clip38"><rect x="2532" y="6771" width="2062" height="1276"/></clipPath></defs><g clip-path="url(#clip0)" transform="translate(-2531 -6771)"><path d="M2532 6817.81C2532 6792.51 2552.51 6772 2577.81 6772L4549.19 6772C4574.49 6772 4595 6792.51 4595 6817.81L4595 8001.19C4595 8026.49 4574.49 8047 4549.19 8047L2577.81 8047C2552.51 8047 2532 8026.49 2532 8001.19Z" fill="#FFF8EA" fill-rule="evenodd"/><g clip-path="url(#clip1)"><rect x="2797" y="6916" width="1427" height="929" fill="#FFF8EA"/></g><g clip-path="url(#clip2)"><path d="M2797 7712.25 4224 7712.25M2797 7579.25 4224 7579.25M2797 7446.24 4224 7446.24M2797 7314.24 4224 7314.24M2797 7181.24 4224 7181.24M2797 7049.23 4224 7049.23M2797 6916 4224 6916" stroke="#000000" stroke-width="2.29167" stroke-linejoin="round" stroke-miterlimit="10" fill="none"/></g><g clip-path="url(#clip3)"><rect x="2868.5" y="7440.5" width="94.9998" height="404" stroke="#000000" stroke-width="3.4375" stroke-linejoin="round" stroke-miterlimit="10" fill="#FFA767"/></g><g clip-path="url(#clip4)"><rect x="3106.5" y="7314.5" width="94.9998" height="530" stroke="#000000" stroke-width="3.4375" stroke-linejoin="round" stroke-miterlimit="10" fill="#FFA767"/></g><g clip-path="url(#clip5)"><rect x="3344.5" y="7219.5" width="95.0002" height="625" stroke="#000000" stroke-width="3.4375" stroke-linejoin="round" stroke-miterlimit="10" fill="#FFA767"/></g><g clip-path="url(#clip6)"><rect x="3582.5" y="7080.5" width="94.9998" height="764" stroke="#000000" stroke-width="3.4375" stroke-linejoin="round" stroke-miterlimit="10" fill="#FFA767"/></g><g clip-path="url(#clip7)"><rect x="3819.5" y="7365.5" width="96.0002" height="479" stroke="#000000" stroke-width="3.4375" stroke-linejoin="round" stroke-miterlimit="10" fill="#FFA767"/></g><g clip-path="url(#clip8)"><rect x="4057.5" y="7251.5" width="94.9998" height="593" stroke="#000000" stroke-width="3.4375" stroke-linejoin="round" stroke-miterlimit="10" fill="#FFA767"/></g><g clip-path="url(#clip9)"><path d="M0 0 0.000360892 929" stroke="#000000" stroke-width="2.29167" stroke-linejoin="round" stroke-miterlimit="10" fill="none" fill-rule="evenodd" transform="matrix(1 0 0 -1 2797 7845)"/></g><g clip-path="url(#clip10)"><path d="M2797 7845 4224 7845" stroke="#000000" stroke-width="2.29167" stroke-linejoin="round" stroke-miterlimit="10" fill="none" fill-rule="evenodd"/></g><g clip-path="url(#clip11)"><text font-family="Arial,Arial_MSFontService,sans-serif" font-weight="400" font-size="46" transform="matrix(1 0 0 1 2732.49 7860)">0</text></g><g clip-path="url(#clip12)"><text font-family="Arial,Arial_MSFontService,sans-serif" font-weight="400" font-size="46" transform="matrix(1 0 0 1 2681.52 7727)">200</text></g><g clip-path="url(#clip13)"><text font-family="Arial,Arial_MSFontService,sans-serif" font-weight="400" font-size="46" transform="matrix(1 0 0 1 2681.52 7594)">400</text></g><g clip-path="url(#clip14)"><text font-family="Arial,Arial_MSFontService,sans-serif" font-weight="400" font-size="46" transform="matrix(1 0 0 1 2681.52 7462)">600</text></g><g clip-path="url(#clip15)"><text font-family="Arial,Arial_MSFontService,sans-serif" font-weight="400" font-size="46" transform="matrix(1 0 0 1 2681.52 7329)">800</text></g><g clip-path="url(#clip16)"><text font-family="Arial,Arial_MSFontService,sans-serif" font-weight="400" font-size="46" transform="matrix(1 0 0 1 2656.04 7197)">1000</text></g><g clip-path="url(#clip17)"><text font-family="Arial,Arial_MSFontService,sans-serif" font-weight="400" font-size="46" transform="matrix(1 0 0 1 2656.04 7064)">1200</text></g><g clip-path="url(#clip18)"><text font-family="Arial,Arial_MSFontService,sans-serif" font-weight="400" font-size="46" transform="matrix(1 0 0 1 2656.04 6931)">1400</text></g><g clip-path="url(#clip19)"><text font-family="Arial,Arial_MSFontService,sans-serif" font-weight="700" font-size="46" transform="matrix(1 0 0 1 2806.75 7914)">2016-2017</text></g><g clip-path="url(#clip20)"><text font-family="Arial,Arial_MSFontService,sans-serif" font-weight="700" font-size="46" transform="matrix(1 0 0 1 3044.54 7914)">2017-2018</text></g><g clip-path="url(#clip21)"><text font-family="Arial,Arial_MSFontService,sans-serif" font-weight="700" font-size="46" transform="matrix(1 0 0 1 3282.32 7914)">2018-2019</text></g><g clip-path="url(#clip22)"><text font-family="Arial,Arial_MSFontService,sans-serif" font-weight="700" font-size="46" transform="matrix(1 0 0 1 3520.11 7914)">2019-2020</text></g><g clip-path="url(#clip23)"><text font-family="Arial,Arial_MSFontService,sans-serif" font-weight="700" font-size="46" transform="matrix(1 0 0 1 3757.9 7914)">2020-2021</text></g><g clip-path="url(#clip24)"><text font-family="Arial,Arial_MSFontService,sans-serif" font-weight="700" font-size="46" transform="matrix(1 0 0 1 3995.69 7914)">2021-2022</text></g><g clip-path="url(#clip25)"><text font-family="Arial,Arial_MSFontService,sans-serif" font-weight="700" font-size="46" transform="matrix(6.12323e-17 -1 1 6.12323e-17 2632.57 7613)">Numero de incendios</text></g><g clip-path="url(#clip26)"><text font-family="Arial,Arial_MSFontService,sans-serif" font-style="italic" font-weight="700" font-size="46" transform="matrix(1 0 0 1 3093.59 6849)">Cantidad de incendios a través de los años</text></g><g clip-path="url(#clip27)"><rect x="4296.5" y="7249.5" width="23" height="23" stroke="#000000" stroke-width="3.4375" stroke-linejoin="round" stroke-miterlimit="10" fill="#FFA767"/></g><g clip-path="url(#clip28)"><text fill="#1A1A1A" font-family="Arial,Arial_MSFontService,sans-serif" font-weight="400" font-size="46" transform="matrix(1 0 0 1 4329.26 7276)">2016-2017</text></g><g clip-path="url(#clip29)"><rect x="4296.5" y="7327.5" width="23" height="23" stroke="#000000" stroke-width="3.4375" stroke-linejoin="round" stroke-miterlimit="10" fill="#FFA767"/></g><g clip-path="url(#clip30)"><text fill="#1A1A1A" font-family="Arial,Arial_MSFontService,sans-serif" font-weight="400" font-size="46" transform="matrix(1 0 0 1 4329.26 7354)">2017-2018</text></g><g clip-path="url(#clip31)"><rect x="4296.5" y="7405.5" width="23" height="23" stroke="#000000" stroke-width="3.4375" stroke-linejoin="round" stroke-miterlimit="10" fill="#FFA767"/></g><g clip-path="url(#clip32)"><text fill="#1A1A1A" font-family="Arial,Arial_MSFontService,sans-serif" font-weight="400" font-size="46" transform="matrix(1 0 0 1 4329.26 7432)">2018-2019</text></g><g clip-path="url(#clip33)"><rect x="4296.5" y="7484.5" width="23" height="23" stroke="#000000" stroke-width="3.4375" stroke-linejoin="round" stroke-miterlimit="10" fill="#FFA767"/></g><g clip-path="url(#clip34)"><text fill="#1A1A1A" font-family="Arial,Arial_MSFontService,sans-serif" font-weight="400" font-size="46" transform="matrix(1 0 0 1 4329.26 7511)">2019-2020</text></g><g clip-path="url(#clip35)"><rect x="4296.5" y="7562.5" width="23" height="23" stroke="#000000" stroke-width="3.4375" stroke-linejoin="round" stroke-miterlimit="10" fill="#FFA767"/></g><g clip-path="url(#clip36)"><text fill="#1A1A1A" font-family="Arial,Arial_MSFontService,sans-serif" font-weight="400" font-size="46" transform="matrix(1 0 0 1 4329.26 7589)">2020-2021</text></g><g clip-path="url(#clip37)"><rect x="4296.5" y="7640.5" width="23" height="23" stroke="#000000" stroke-width="3.4375" stroke-linejoin="round" stroke-miterlimit="10" fill="#FFA767"/></g><g clip-path="url(#clip38)"><text fill="#1A1A1A" font-family="Arial,Arial_MSFontService,sans-serif" font-weight="400" font-size="46" transform="matrix(1 0 0 1 4329.26 7667)">2021-2022</text></g><path d="M2532 6817.81C2532 6792.51 2552.51 6772 2577.81 6772L4549.19 6772C4574.49 6772 4595 6792.51 4595 6817.81L4595 8001.19C4595 8026.49 4574.49 8047 4549.19 8047L2577.81 8047C2552.51 8047 2532 8026.49 2532 8001.19Z" stroke="#898989" stroke-width="2.29167" stroke-linejoin="round" stroke-miterlimit="10" fill="none" fill-rule="evenodd"/></g></svg>