<svg width="2065" height="1277" xmlns="http://www.w3.org/2000/svg" xmlns:xlink="http://www.w3.org/1999/xlink" xml:space="preserve" overflow="hidden"><defs><clipPath id="clip0"><rect x="2531" y="10708" width="2065" height="1277"/></clipPath><clipPath id="clip1"><rect x="2532" y="10708" width="2062" height="1276"/></clipPath><clipPath id="clip2"><rect x="2532" y="10708" width="2062" height="1276"/></clipPath><clipPath id="clip3"><rect x="2797" y="10853" width="1430" height="932"/></clipPath><clipPath id="clip4"><rect x="2797" y="10853" width="1430" height="932"/></clipPath><clipPath id="clip5"><rect x="2797" y="10853" width="1430" height="932"/></clipPath><clipPath id="clip6"><rect x="2797" y="10853" width="1430" height="932"/></clipPath><clipPath id="clip7"><rect x="2797" y="10853" width="1430" height="932"/></clipPath><clipPath id="clip8"><rect x="2797" y="10853" width="1430" height="932"/></clipPath><clipPath id="clip9"><rect x="2532" y="10708" width="2062" height="1276"/></clipPath><clipPath id="clip10"><rect x="2532" y="10708" width="2062" height="1276"/></clipPath><clipPath id="clip11"><rect x="2532" y="10708" width="2062" height="1276"/></clipPath><clipPath id="clip12"><rect x="2532" y="10708" width="2062" height="1276"/></clipPath><clipPath id="clip13"><rect x="2532" y="10708" width="2062" height="1276"/></clipPath><clipPath id="clip14"><rect x="2532" y="10708" width="2062" height="1276"/></clipPath><clipPath id="clip15"><rect x="2532" y="10708" width="2062" height="1276"/></clipPath><clipPath id="clip16"><rect x="2532" y="10708" width="2062" height="1276"/></clipPath><clipPath id="clip17"><rect x="2532" y="10708" width="2062" height="1276"/></clipPath><clipPath id="clip18"><rect x="2532" y="10708" width="2062" height="1276"/></clipPath><clipPath id="clip19"><rect x="2532" y="10708" width="2062" height="1276"/></clipPath><clipPath id="clip20"><rect x="2532" y="10708" width="2062" height="1276"/></clipPath><clipPath id="clip21"><rect x="2532" y="10708" width="2062" height="1276"/></clipPath><clipPath id="clip22"><rect x="2532" y="10708" width="2062" height="1276"/></clipPath><clipPath id="clip23"><rect x="2532" y="10708" width="2062" height="1276"/></clipPath><clipPath id="clip24"><rect x="2532" y="10708" width="2062" height="1276"/></clipPath><clipPath id="clip25"><rect x="2532" y="10708" width="2062" height="1276"/></clipPath><clipPath id="clip26"><rect x="2532" y="10708" width="2062" height="1276"/></clipPath><clipPath id="clip27"><rect x="2532" y="10708" width="2062" height="1276"/></clipPath><clipPath id="clip28"><rect x="2532" y="10708" width="2062" height="1276"/></clipPath><clipPath id="clip29"><rect x="2532" y="10708" width="2062" height="1276"/></clipPath><clipPath id="clip30"><rect x="2532" y="10708" width="2062" height="1276"/></clipPath><clipPath id="clip31"><rect x="2532" y="10708" width="2062" height="1276"/></clipPath><clipPath id="clip32"><rect x="2532" y="10708" width="2062" height="1276"/></clipPath><clipPath id="clip33"><rect x="2532" y="10708" width="2062" height="1276"/></clipPath><clipPath id="clip34"><rect x="2532" y="10708" width="2062" height="1276"/></clipPath><clipPath id="clip35"><rect x="2532" y="10708" width="2062" height="1276"/></clipPath><clipPath id="clip36"><rect x="2532" y="10708" width="2062" height="1276"/></clipPath><clipPath id="clip37"><rect x="2532" y="10708" width="2062" height="1276"/></clipPath><clipPath id="clip38"><rect x="2532" y="10708" width="2062" height="1276"/></clipPath><clipPath id="clip39"><rect x="2532" y="10708" width="2062" height="1276"/></clipPath><clipPath id="clip40"><rect x="2532" y="10708" width="2062" height="1276"/></clipPath><clipPath id="clip41"><rect x="2532" y="10708" width="2062" height="1276"/></clipPath></defs><g clip-path="url(#clip0)" transform="translate(-2531 -10708)"><path d="M2532 10754.8C2532 10729.5 2552.51 10709 2577.81 10709L4549.19 10709C4574.49 10709 4595 10729.5 4595 10754.8L4595 11938.2C4595 11963.5 4574.49 11984 4549.19 11984L2577.81 11984C2552.51 11984 2532 11963.5 2532 11938.2Z" fill="#FFF8EA" fill-rule="evenodd"/><g clip-path="url(#clip1)"><rect x="2797" y="10853" width="1427" height="929" fill="#FFF8EA"/></g><g clip-path="url(#clip2)"><path d="M2797 11688.4 4224 11688.4M2797 11596.4 4224 11596.4M2797 11503.4 4224 11503.4M2797 11410.4 4224 11410.4M2797 11317.4 4224 11317.4M2797 11224.4 4224 11224.4M2797 11131.4 4224 11131.4M2797 11039.4 4224 11039.4M2797 10946.4 4224 10946.4M2797 10853 4224 10853" stroke="#000000" stroke-width="2.29167" stroke-linejoin="round" stroke-miterlimit="10" fill="none"/></g><g clip-path="url(#clip3)"><rect x="2868.5" y="11436.5" width="94.9998" height="345" stroke="#000000" stroke-width="3.4375" stroke-linejoin="round" stroke-miterlimit="10" fill="#FFA767"/></g><g clip-path="url(#clip4)"><rect x="3106.5" y="11336.5" width="94.9998" height="445" stroke="#000000" stroke-width="3.4375" stroke-linejoin="round" stroke-miterlimit="10" fill="#FFA767"/></g><g clip-path="url(#clip5)"><rect x="3344.5" y="11165.5" width="95.0002" height="616" stroke="#000000" stroke-width="3.4375" stroke-linejoin="round" stroke-miterlimit="10" fill="#FFA767"/></g><g clip-path="url(#clip6)"><rect x="3582.5" y="10966.5" width="94.9998" height="815" stroke="#000000" stroke-width="3.4375" stroke-linejoin="round" stroke-miterlimit="10" fill="#FFA767"/></g><g clip-path="url(#clip7)"><rect x="3819.5" y="11152.5" width="96.0002" height="629" stroke="#000000" stroke-width="3.4375" stroke-linejoin="round" stroke-miterlimit="10" fill="#FFA767"/></g><g clip-path="url(#clip8)"><rect x="4057.5" y="11133.5" width="94.9998" height="648" stroke="#000000" stroke-width="3.4375" stroke-linejoin="round" stroke-miterlimit="10" fill="#FFA767"/></g><g clip-path="url(#clip9)"><path d="M0 0 0.000360892 929" stroke="#000000" stroke-width="2.29167" stroke-linejoin="round" stroke-miterlimit="10" fill="none" fill-rule="evenodd" transform="matrix(1 0 0 -1 2797 11782)"/></g><g clip-path="url(#clip10)"><path d="M2797 11782 4224 11782" stroke="#000000" stroke-width="2.29167" stroke-linejoin="round" stroke-miterlimit="10" fill="none" fill-rule="evenodd"/></g><g clip-path="url(#clip11)"><text font-family="Arial,Arial_MSFontService,sans-serif" font-weight="400" font-size="46" transform="matrix(1 0 0 1 2732.49 11797)">0</text></g><g clip-path="url(#clip12)"><text font-family="Arial,Arial_MSFontService,sans-serif" font-weight="400" font-size="46" transform="matrix(1 0 0 1 2681.52 11704)">200</text></g><g clip-path="url(#clip13)"><text font-family="Arial,Arial_MSFontService,sans-serif" font-weight="400" font-size="46" transform="matrix(1 0 0 1 2681.52 11611)">400</text></g><g clip-path="url(#clip14)"><text font-family="Arial,Arial_MSFontService,sans-serif" font-weight="400" font-size="46" transform="matrix(1 0 0 1 2681.52 11518)">600</text></g><g clip-path="url(#clip15)"><text font-family="Arial,Arial_MSFontService,sans-serif" font-weight="400" font-size="46" transform="matrix(1 0 0 1 2681.52 11425)">800</text></g><g clip-path="url(#clip16)"><text font-family="Arial,Arial_MSFontService,sans-serif" font-weight="400" font-size="46" transform="matrix(1 0 0 1 2656.04 11333)">1000</text></g><g clip-path="url(#clip17)"><text font-family="Arial,Arial_MSFontService,sans-serif" font-weight="400" font-size="46" transform="matrix(1 0 0 1 2656.04 11240)">1200</text></g><g clip-path="url(#clip18)"><text font-family="Arial,Arial_MSFontService,sans-serif" font-weight="400" font-size="46" transform="matrix(1 0 0 1 2656.04 11147)">1400</text></g><g clip-path="url(#clip19)"><text font-family="Arial,Arial_MSFontService,sans-serif" font-weight="400" font-size="46" transform="matrix(1 0 0 1 2656.04 11054)">1600</text></g><g clip-path="url(#clip20)"><text font-family="Arial,Arial_MSFontService,sans-serif" font-weight="400" font-size="46" transform="matrix(1 0 0 1 2656.04 10961)">1800</text></g><g clip-path="url(#clip21)"><text font-family="Arial,Arial_MSFontService,sans-serif" font-weight="400" font-size="46" transform="matrix(1 0 0 1 2656.04 10868)">2000</text></g><g clip-path="url(#clip22)"><text font-family="Arial,Arial_MSFontService,sans-serif" font-weight="700" font-size="46" transform="matrix(1 0 0 1 2806.75 11851)">2016-2017</text></g><g clip-path="url(#clip23)"><text font-family="Arial,Arial_MSFontService,sans-serif" font-weight="700" font-size="46" transform="matrix(1 0 0 1 3044.54 11851)">2017-2018</text></g><g clip-path="url(#clip24)"><text font-family="Arial,Arial_MSFontService,sans-serif" font-weight="700" font-size="46" transform="matrix(1 0 0 1 3282.32 11851)">2018-2019</text></g><g clip-path="url(#clip25)"><text font-family="Arial,Arial_MSFontService,sans-serif" font-weight="700" font-size="46" transform="matrix(1 0 0 1 3520.11 11851)">2019-2020</text></g><g clip-path="url(#clip26)"><text font-family="Arial,Arial_MSFontService,sans-serif" font-weight="700" font-size="46" transform="matrix(1 0 0 1 3757.9 11851)">2020-2021</text></g><g clip-path="url(#clip27)"><text font-family="Arial,Arial_MSFontService,sans-serif" font-weight="700" font-size="46" transform="matrix(1 0 0 1 3995.69 11851)">2021-2022</text></g><g clip-path="url(#clip28)"><text font-family="Arial,Arial_MSFontService,sans-serif" font-weight="700" font-size="46" transform="matrix(6.12323e-17 -1 1 6.12323e-17 2632.57 11551)">Numero de incendios</text></g><g clip-path="url(#clip29)"><text font-family="Arial,Arial_MSFontService,sans-serif" font-style="italic" font-weight="700" font-size="46" transform="matrix(1 0 0 1 3093.59 10786)">Cantidad de incendios a través de los años</text></g><g clip-path="url(#clip30)"><rect x="4296.5" y="11186.5" width="23" height="23" stroke="#000000" stroke-width="3.4375" stroke-linejoin="round" stroke-miterlimit="10" fill="#FFA767"/></g><g clip-path="url(#clip31)"><text fill="#1A1A1A" font-family="Arial,Arial_MSFontService,sans-serif" font-weight="400" font-size="46" transform="matrix(1 0 0 1 4329.26 11213)">2016-2017</text></g><g clip-path="url(#clip32)"><rect x="4296.5" y="11264.5" width="23" height="23" stroke="#000000" stroke-width="3.4375" stroke-linejoin="round" stroke-miterlimit="10" fill="#FFA767"/></g><g clip-path="url(#clip33)"><text fill="#1A1A1A" font-family="Arial,Arial_MSFontService,sans-serif" font-weight="400" font-size="46" transform="matrix(1 0 0 1 4329.26 11291)">2017-2018</text></g><g clip-path="url(#clip34)"><rect x="4296.5" y="11342.5" width="23" height="24" stroke="#000000" stroke-width="3.4375" stroke-linejoin="round" stroke-miterlimit="10" fill="#FFA767"/></g><g clip-path="url(#clip35)"><text fill="#1A1A1A" font-family="Arial,Arial_MSFontService,sans-serif" font-weight="400" font-size="46" transform="matrix(1 0 0 1 4329.26 11370)">2018-2019</text></g><g clip-path="url(#clip36)"><rect x="4296.5" y="11421.5" width="23" height="23" stroke="#000000" stroke-width="3.4375" stroke-linejoin="round" stroke-miterlimit="10" fill="#FFA767"/></g><g clip-path="url(#clip37)"><text fill="#1A1A1A" font-family="Arial,Arial_MSFontService,sans-serif" font-weight="400" font-size="46" transform="matrix(1 0 0 1 4329.26 11448)">2019-2020</text></g><g clip-path="url(#clip38)"><rect x="4296.5" y="11499.5" width="23" height="23" stroke="#000000" stroke-width="3.4375" stroke-linejoin="round" stroke-miterlimit="10" fill="#FFA767"/></g><g clip-path="url(#clip39)"><text fill="#1A1A1A" font-family="Arial,Arial_MSFontService,sans-serif" font-weight="400" font-size="46" transform="matrix(1 0 0 1 4329.26 11526)">2020-2021</text></g><g clip-path="url(#clip40)"><rect x="4296.5" y="11577.5" width="23" height="23" stroke="#000000" stroke-width="3.4375" stroke-linejoin="round" stroke-miterlimit="10" fill="#FFA767"/></g><g clip-path="url(#clip41)"><text fill="#1A1A1A" font-family="Arial,Arial_MSFontService,sans-serif" font-weight="400" font-size="46" transform="matrix(1 0 0 1 4329.26 11604)">2021-2022</text></g><path d="M2532 10754.8C2532 10729.5 2552.51 10709 2577.81 10709L4549.19 10709C4574.49 10709 4595 10729.5 4595 10754.8L4595 11938.2C4595 11963.5 4574.49 11984 4549.19 11984L2577.81 11984C2552.51 11984 2532 11963.5 2532 11938.2Z" stroke="#898989" stroke-width="2.29167" stroke-linejoin="round" stroke-miterlimit="10" fill="none" fill-rule="evenodd"/></g></svg>