<svg version="1.1" id="Layer_1" xmlns="http://www.w3.org/2000/svg" xmlns:xlink="http://www.w3.org/1999/xlink" x="0px" y="0px"
	 width="100%" viewBox="0 0 1025 543" enable-background="new 0 0 1025 543" xml:space="preserve">
<path fill="#FFEDDF" opacity="1.000000" stroke="none" 
	d="
M1.231282,538.231445 
	C1.000000,363.645782 1.000000,189.291550 1.000000,14.468657 
	C4.949950,7.216406 10.435253,2.574409 18.731897,1.239932 
	C349.020905,1.000000 679.041809,1.000000 1009.531372,1.000000 
	C1016.152100,2.550503 1021.799133,4.926093 1025.748047,10.743372 
	C1026.000000,187.354233 1026.000000,363.708466 1026.000000,540.531372 
	C1025.147339,541.860840 1024.435791,542.863281 1023.213013,543.783386 
	C684.312439,544.000000 345.624878,544.000000 6.468657,544.000000 
	C4.009797,542.545776 2.769223,540.477234 1.231282,538.231445 
z"/>
<path fill="#555555" opacity="1.000000" stroke="none" 
	d="
M18.530293,1.000000 
	C19.699404,1.706747 19.237583,2.189583 18.578571,2.309759 
	C10.970963,3.697067 5.793900,8.436111 1.290865,14.264820 
	C1.000000,9.729098 -0.678682,3.494689 1.430809,1.691199 
	C3.987888,-0.494954 9.745419,1.058187 14.118241,1.002583 
	C15.432155,0.985876 16.746458,1.000000 18.530293,1.000000 
z"/>
<path fill="#555555" opacity="1.000000" stroke="none" 
	d="
M1026.000000,10.513435 
	C1025.037720,12.073121 1024.506226,10.955076 1024.163086,10.467402 
	C1020.566162,5.358067 1014.824707,3.869019 1009.753052,1.330382 
	C1012.290039,1.000000 1014.580078,1.000000 1016.870117,1.000000 
	C1026.000000,1.000000 1026.000000,1.000000 1026.000000,10.513435 
z"/>
<path fill="#555555" opacity="1.000000" stroke="none" 
	d="
M1.000000,538.499512 
	C3.782777,538.721252 4.260250,541.670654 6.056699,543.645203 
	C1.795325,544.870483 0.130097,543.202026 1.000000,538.499512 
z"/>
<path fill="#555555" opacity="1.000000" stroke="none" 
	d="
M1023.500000,544.000000 
	C1022.777954,542.131348 1024.360962,541.497253 1025.699951,540.745422 
	C1025.736694,542.268921 1027.084961,544.612244 1023.500000,544.000000 
z"/>
<path fill="#FF2B31" opacity="1.000000" stroke="none" 
	d="
M374.497986,489.428162 
	C364.946381,477.330292 363.569611,464.344788 369.355469,450.371948 
	C370.564911,447.451141 371.615753,444.458130 372.952820,441.598022 
	C376.289124,434.461426 376.112854,427.492554 372.445282,420.525940 
	C370.299286,416.449677 369.241394,412.158112 370.451660,407.516510 
	C371.141693,404.870239 372.202057,403.620667 374.758759,405.844482 
	C375.503143,406.491913 376.376404,407.026123 377.261993,407.469666 
	C379.976990,408.829529 382.280701,408.491364 383.091248,405.255432 
	C384.502869,399.619751 385.551697,393.877625 384.834442,388.047516 
	C384.510071,385.411011 383.585876,382.443176 380.901825,381.477081 
	C374.744415,379.260742 373.108246,374.218903 372.042053,368.687897 
	C369.455658,355.270081 371.428894,342.532166 377.971497,330.533569 
	C382.384216,322.440979 386.872589,314.389618 391.649353,305.736023 
	C392.662079,312.003937 391.135559,317.315216 390.477966,322.689484 
	C390.338196,323.831573 390.114746,324.966187 390.030334,326.111603 
	C389.924255,327.551453 390.426086,328.844177 391.825684,329.337646 
	C393.193451,329.819977 393.936707,328.576202 394.605225,327.692963 
	C395.992340,325.860321 397.242981,323.924408 398.746979,321.745209 
	C406.664734,333.343292 414.449493,344.589203 413.127838,359.444061 
	C412.730652,363.908295 413.562012,368.484131 412.516296,372.891479 
	C411.802521,375.899933 410.759338,378.823730 406.379517,376.598999 
	C403.112732,374.939667 401.790497,377.815765 401.168976,380.124207 
	C400.529053,382.500824 400.611725,385.295715 402.261627,387.338165 
	C406.447052,392.519348 407.888275,398.535065 408.333618,404.962006 
	C408.388306,405.751526 408.898438,406.509491 409.339417,407.648590 
	C411.992889,404.104218 412.071411,399.458618 415.639557,395.879364 
	C416.796051,409.700531 419.740234,422.662750 422.977051,435.578278 
	C424.510590,441.697357 425.721191,447.881287 426.168121,454.235779 
	C427.079620,467.195282 423.492249,478.562958 414.919373,488.741943 
	C414.745514,490.275085 414.074036,491.159088 413.017609,492.198242 
	C413.328491,497.457611 413.018311,502.329285 410.325378,506.827423 
	C405.604828,514.712341 396.437622,518.205444 387.531647,515.458923 
	C378.385834,512.638428 373.569031,504.624634 374.421448,493.162964 
	C373.870789,491.713715 373.904114,490.706085 374.497986,489.428162 
z"/>
<path fill="#FF8C87" opacity="1.000000" stroke="none" 
	d="
M193.357941,489.404907 
	C188.409409,484.087830 184.573807,478.617310 182.959152,471.690369 
	C181.281982,464.495117 183.032181,457.848694 185.498245,451.246155 
	C186.487579,448.597412 187.519409,445.950958 188.747864,443.407745 
	C192.057022,436.557037 191.486938,429.893127 188.147720,423.252869 
	C186.388535,419.754639 185.474457,416.115631 186.502625,412.153320 
	C187.147522,409.668060 187.982590,408.858887 190.597870,410.384094 
	C196.082504,413.582764 197.816818,412.687469 198.889603,406.489899 
	C199.483368,403.059753 200.127411,399.634674 199.933258,396.098114 
	C199.767654,393.081116 198.947479,389.973480 196.326248,388.821442 
	C188.628067,385.438049 187.990936,378.417969 187.206924,371.758789 
	C186.118317,362.512634 187.649857,353.476044 191.967285,345.116821 
	C196.293747,336.740143 200.828644,328.471100 205.627243,319.490326 
	C206.609100,325.106201 205.792725,329.781860 204.735168,334.407593 
	C204.215683,336.679718 202.890503,339.458130 205.673859,340.508392 
	C208.091644,341.420715 208.985672,338.383759 210.261185,336.749420 
	C210.864456,335.976440 211.450378,335.189911 212.375748,333.973755 
	C218.163177,343.844055 225.923798,352.336182 225.045273,364.630951 
	C224.713684,369.271271 225.219986,373.969482 224.931046,378.615601 
	C224.713486,382.113800 224.402771,386.120728 218.829498,384.015289 
	C216.978058,383.315918 215.553940,384.518982 214.692703,386.037628 
	C213.211273,388.649963 213.737793,391.465057 215.429993,393.549133 
	C218.393433,397.198853 219.727386,401.394867 220.639832,405.809052 
	C221.063080,407.856689 221.128067,409.978424 221.479111,413.202301 
	C223.780136,408.841644 224.444199,404.830597 227.572937,401.215088 
	C228.232224,408.269470 229.208954,414.672668 230.387955,421.045380 
	C232.648163,433.262299 237.002060,445.035522 237.135681,457.724121 
	C237.265594,470.062775 232.794449,480.043976 223.865997,488.694397 
	C223.244781,489.590912 222.820633,490.200562 221.832687,490.773834 
	C221.246445,491.017456 221.001999,491.094360 220.376007,491.236694 
	C218.161224,491.378784 216.318771,491.549835 214.243744,490.548645 
	C213.786224,490.098724 213.653381,489.874420 213.462265,489.266968 
	C213.561996,487.257965 214.658157,486.182617 215.718414,485.140106 
	C223.816803,477.177307 224.958450,467.353882 222.822098,456.938568 
	C221.307312,449.553589 220.120743,442.200653 220.493896,434.654877 
	C220.620529,432.094330 220.316696,430.333618 217.052673,429.820007 
	C213.170410,429.209167 211.582565,425.767548 210.293045,422.446777 
	C209.104843,419.386902 208.897003,416.082733 208.228668,412.409729 
	C207.205399,417.303680 206.269455,421.700531 205.556427,426.144531 
	C205.117233,428.881775 205.178848,431.951691 201.382126,432.655579 
	C199.842438,432.941010 200.635132,434.232056 200.813904,435.081970 
	C202.189163,441.620453 201.642807,447.975037 199.287842,454.228180 
	C198.468735,456.403137 198.042542,458.726257 197.323685,460.939026 
	C194.182922,470.606873 195.822876,479.327393 202.433319,487.520020 
	C202.710663,488.405182 202.713287,488.931091 202.423264,489.823120 
	C200.932632,491.417175 199.281097,491.344269 197.258408,491.372681 
	C196.328888,491.344391 195.806595,491.267639 194.925964,490.995453 
	C194.085770,490.607483 193.723923,490.247253 193.357941,489.404907 
z"/>
<path fill="#FA8985" opacity="1.000000" stroke="none" 
	d="
M389.223328,257.134674 
	C387.649353,255.306778 385.850830,255.948654 384.272522,255.934647 
	C376.781586,255.868118 369.289093,255.965744 361.798462,255.884949 
	C351.943390,255.778641 344.991821,248.891525 345.004150,239.379837 
	C345.016663,229.713593 351.768951,223.071854 361.880585,223.047012 
	C386.519135,222.986511 411.158051,222.990326 435.796631,223.044144 
	C445.830811,223.066055 452.927673,229.892288 452.892517,239.254471 
	C452.857300,248.631210 445.728455,255.670517 435.971954,255.894882 
	C422.843658,256.196808 409.702667,255.360947 396.310059,256.642151 
	C393.923828,258.034454 391.716461,257.552246 389.223328,257.134674 
z"/>
<path fill="#FDBAB1" opacity="1.000000" stroke="none" 
	d="
M120.307587,323.214203 
	C118.422043,321.421844 116.484917,322.068817 114.728165,322.055298 
	C106.077614,321.988678 97.425941,322.071228 88.775322,322.009216 
	C78.742569,321.937286 72.937164,315.888794 72.961830,305.660187 
	C72.985443,295.868469 78.894753,290.023346 88.919243,290.012085 
	C113.874176,289.984009 138.829178,289.990936 163.784134,290.008759 
	C173.689880,290.015839 179.975342,296.301270 180.000732,306.141846 
	C180.026154,315.995117 173.887421,321.943878 163.624725,322.023254 
	C150.329315,322.126099 137.033981,322.236298 123.426025,322.600677 
	C122.445648,323.643219 121.601982,323.741241 120.307587,323.214203 
z"/>
<path fill="#FCB9B1" opacity="1.000000" stroke="none" 
	d="
M205.322662,280.472443 
	C192.489822,280.844513 179.831223,281.086548 167.177505,280.930847 
	C159.296188,280.833893 152.839691,272.853394 153.005005,264.076508 
	C153.166046,255.525970 159.431961,249.026321 167.696854,249.014999 
	C193.684555,248.979416 219.672394,248.971191 245.660049,249.018906 
	C254.158752,249.034500 260.885956,256.100830 260.944733,264.844574 
	C261.004852,273.790863 254.197388,280.934204 245.436661,280.983093 
	C234.941940,281.041687 224.446640,280.998535 213.483963,280.999756 
	C212.826630,281.145874 212.636917,281.291687 212.112656,281.309387 
	C210.479645,279.002960 209.162918,276.836090 207.735519,274.387207 
	C209.456879,272.163940 212.933395,270.442291 208.140671,268.054382 
	C207.531250,267.750732 208.011993,266.889099 208.537354,266.064026 
	C208.897751,265.640747 209.048996,265.479980 209.423492,265.090973 
	C210.356598,264.051544 210.270813,263.273376 209.187042,263.137024 
	C207.918915,262.977509 206.725433,263.675079 206.891006,265.034180 
	C207.232285,267.835297 206.160995,270.543274 206.510574,273.656250 
	C204.507935,275.807220 205.104935,278.006287 205.322662,280.472443 
z"/>
<path fill="#FDBAB1" opacity="1.000000" stroke="none" 
	d="
M334.992889,315.948059 
	C338.153839,315.949280 340.816467,315.944000 343.479065,315.953064 
	C352.120758,315.982513 358.821198,321.693970 359.023499,329.197235 
	C359.317963,340.121552 353.345215,347.854187 343.825928,347.925842 
	C318.199677,348.118774 292.570465,348.081818 266.943695,347.930298 
	C260.045502,347.889526 253.095062,341.612244 252.068298,335.281891 
	C250.717224,326.952057 254.290604,319.674683 261.197968,316.557770 
	C262.960938,315.762268 264.790009,315.974213 266.597809,315.972107 
	C289.230042,315.945831 311.862305,315.951019 334.992889,315.948059 
z"/>
<path fill="#FF8C88" opacity="1.000000" stroke="none" 
	d="
M115.347321,490.174377 
	C103.210983,481.532104 100.203720,471.480988 105.570679,458.124847 
	C106.559937,455.662964 107.555267,453.202179 108.616577,450.770905 
	C110.467239,446.531372 110.264206,442.445709 108.108498,438.336914 
	C106.882858,436.000854 105.673584,433.584808 105.990784,430.772644 
	C106.311165,427.932220 106.449181,424.971619 110.489433,427.957062 
	C112.911293,429.746643 114.360214,428.775085 115.279343,426.099823 
	C116.397804,422.844299 115.811066,419.494324 116.174194,416.211517 
	C116.635117,412.044739 113.664055,410.615112 111.034523,408.521698 
	C107.847473,405.984436 107.475136,402.014801 106.956223,398.177002 
	C105.281097,385.788055 110.686333,375.522186 116.549728,365.370575 
	C118.009857,362.842590 119.524544,360.346161 121.497681,357.020142 
	C122.315331,361.665497 120.859779,365.097229 120.482910,368.604919 
	C120.308006,370.232849 119.221581,372.303955 120.932175,373.156433 
	C123.183098,374.278168 123.670341,371.516235 124.851013,370.355103 
	C125.307343,369.906342 125.609688,369.301025 125.837601,368.974335 
	C136.149918,378.493958 136.939606,390.794495 135.979431,403.576202 
	C135.828369,405.587006 134.951218,406.858276 132.598236,407.086304 
	C127.788345,407.552490 126.279961,410.442627 129.035934,414.751221 
	C131.838623,419.132874 133.016602,423.768219 133.154251,429.212646 
	C135.382462,426.890564 134.896637,423.379120 138.014221,421.112030 
	C139.540970,435.891266 145.206879,449.480682 145.661758,463.880798 
	C145.992477,474.349976 141.423538,483.232819 132.177826,489.547363 
	C126.652977,492.847168 121.157784,491.681122 115.347321,490.174377 
z"/>
<path fill="#FA8F8A" opacity="1.000000" stroke="none" 
	d="
M287.418518,489.994690 
	C283.957306,484.040253 280.393707,478.747192 280.878845,471.672333 
	C281.233734,466.496735 283.079346,461.954681 285.073730,457.425995 
	C287.278137,452.420471 288.014954,447.670624 285.261322,442.615906 
	C284.252869,440.764740 283.444641,438.505249 283.492645,436.454224 
	C283.551483,433.938385 283.910217,430.548584 288.143341,433.156677 
	C291.129517,434.996521 292.704407,433.254669 292.905243,430.516205 
	C293.336426,424.636536 295.026093,418.966431 288.260101,414.238892 
	C282.468140,410.191833 283.660614,402.368286 284.397827,396.023590 
	C285.697632,384.837463 292.600983,376.086334 298.569305,365.544800 
	C299.277435,370.603577 297.888367,374.042297 297.488831,377.570526 
	C297.360321,378.705566 296.703796,380.013763 297.923218,380.764343 
	C299.468750,381.715607 300.383118,380.371521 301.160004,379.334839 
	C302.363129,377.729431 303.029449,376.362427 305.020874,378.979126 
	C311.354034,387.300903 314.013916,396.541260 312.967346,406.878174 
	C312.635437,410.156555 313.442749,414.233887 307.515991,413.268005 
	C304.847107,412.833038 303.688751,417.087799 305.908020,420.423462 
	C308.490295,424.304688 309.448792,428.595520 310.295624,433.546356 
	C311.597778,431.019501 312.692169,428.895813 314.375397,425.629547 
	C315.792999,434.110474 316.924866,441.481110 318.803864,448.697113 
	C320.056152,453.506439 321.132721,458.395447 321.804352,463.314789 
	C323.121094,472.958679 319.937683,481.323486 313.604797,489.014282 
	C312.791565,489.879608 312.044708,490.145508 310.845581,490.327209 
	C309.104004,490.433655 307.786804,490.343689 306.248077,489.497498 
	C305.160278,486.959747 306.781586,485.453278 307.925293,483.940796 
	C311.145050,479.682831 311.950195,474.965179 311.249542,469.804840 
	C310.339172,463.099487 307.684204,456.597534 308.894287,449.637634 
	C309.090607,448.508698 308.494720,447.678772 307.398193,447.387878 
	C301.477875,445.817474 300.928436,440.948364 300.289490,435.774963 
	C298.560547,440.470154 299.442810,445.853180 295.507111,449.516541 
	C295.032135,449.958710 295.064240,450.772461 295.186554,451.428436 
	C296.299316,457.397980 294.435059,462.908508 292.739685,468.490417 
	C291.001770,474.212311 290.778320,479.922760 293.787506,485.416412 
	C294.503998,486.724487 294.980408,488.173859 294.256134,490.060364 
	C293.110443,491.104858 292.038330,491.334381 290.465210,491.339783 
	C289.127197,491.268738 288.315826,490.970886 287.418518,489.994690 
z"/>
<path fill="#14162B" opacity="1.000000" stroke="none" 
	d="
M413.255920,492.415588 
	C411.558014,490.473816 413.591309,490.282837 414.582611,489.241272 
	C416.932465,489.124420 419.094025,489.252167 421.255432,489.249115 
	C608.401245,488.984985 795.546997,488.710785 982.692810,488.437225 
	C982.859436,488.436981 983.035217,488.400726 983.191345,488.440948 
	C984.762085,488.845673 987.609375,487.344055 987.606201,490.017365 
	C987.603027,492.679962 984.749817,491.547363 983.180359,491.551025 
	C893.690491,491.759705 804.200562,491.921295 714.710571,492.046631 
	C614.388184,492.187164 514.065735,492.289032 413.255920,492.415588 
z"/>
<path fill="#131211" opacity="1.000000" stroke="none" 
	d="
M64.908951,490.314819 
	C64.862083,440.932404 64.819748,391.961670 64.664780,342.991302 
	C64.403343,260.372955 64.067055,177.754852 63.799454,95.136513 
	C63.795242,93.837151 62.859138,91.593681 65.182587,91.599854 
	C67.813644,91.606834 66.823372,94.087112 66.829056,95.499260 
	C66.969994,130.479721 66.995880,165.460632 67.122475,200.441177 
	C67.470901,296.717438 67.855934,392.993530 68.494118,489.676270 
	C67.743240,492.000031 66.464485,492.341125 64.908951,490.314819 
z"/>
<path fill="#0F0F24" opacity="1.000000" stroke="none" 
	d="
M64.631111,489.999512 
	C65.856956,491.318756 66.996521,491.041962 68.477524,490.220276 
	C83.870529,490.026093 98.979324,489.969330 114.558907,489.848999 
	C120.359123,490.454254 125.696045,490.315582 131.488434,489.852539 
	C152.066742,489.797333 172.191849,489.823669 193.149109,489.822998 
	C194.415833,489.846771 194.850403,489.897552 195.609589,490.001404 
	C197.185211,490.907074 199.106918,490.429871 199.912903,492.414307 
	C156.280411,492.837341 112.689545,492.928497 69.098671,493.018494 
	C67.767601,493.021240 66.405212,493.191315 65.112663,492.966248 
	C63.120903,492.619385 63.559784,491.344513 64.631111,489.999512 
z"/>
<path fill="#2E2D3E" opacity="1.000000" stroke="none" 
	d="
M310.819305,489.917603 
	C311.723785,489.762573 312.312225,489.682800 313.162598,489.476013 
	C333.495911,489.320679 353.567322,489.292328 374.158051,489.218201 
	C375.218292,490.190094 375.260010,491.208771 374.558533,492.463684 
	C352.641052,492.732880 330.848694,492.767090 308.602417,492.729492 
	C308.014008,490.957001 309.286713,490.499756 310.819305,489.917603 
z"/>
<path fill="#05081F" opacity="1.000000" stroke="none" 
	d="
M286.731812,489.655151 
	C287.911743,489.706238 288.600952,489.813812 289.641968,489.978821 
	C290.729034,490.544281 291.550049,490.995087 291.162720,492.368469 
	C267.613342,492.702942 244.277237,492.778259 220.474762,492.811462 
	C219.669739,492.501373 219.489761,492.148102 219.514526,491.418579 
	C219.845001,490.785492 220.169647,490.539307 220.828156,490.224731 
	C221.098434,490.072418 221.574127,489.939270 221.803207,489.846924 
	C222.398560,489.598907 222.780609,489.526611 223.458893,489.629578 
	C244.573288,489.718262 265.407196,489.714935 286.731812,489.655151 
z"/>
<path fill="#1D1B19" opacity="1.000000" stroke="none" 
	d="
M963.750854,521.665405 
	C963.819824,523.630798 962.995972,524.185486 961.590637,524.016907 
	C960.575317,523.895142 960.290039,523.159302 960.282898,522.252686 
	C960.276367,521.422424 960.426086,520.553650 960.231934,519.769958 
	C959.818787,518.102356 961.480469,514.997620 958.328308,515.169983 
	C955.795227,515.308533 956.678894,518.249512 956.314331,520.091370 
	C956.042419,521.465393 957.523743,523.864380 954.749817,523.957642 
	C951.858643,524.054810 953.451660,521.572021 953.056335,520.242981 
	C952.920166,519.785278 953.073547,519.249451 953.028503,518.755310 
	C952.682007,514.957458 952.580750,511.668823 958.178040,512.187317 
	C961.218323,512.468933 964.290955,513.197327 967.529419,512.235413 
	C969.334045,511.699341 970.754639,513.666809 970.901794,515.742981 
	C971.030701,517.561401 971.022644,519.395569 970.963135,521.219116 
	C970.924377,522.403137 971.526978,524.065918 969.305054,524.030457 
	C967.085999,523.994995 967.897034,522.297485 967.660034,521.143250 
	C967.233337,519.064697 968.877808,515.354736 965.952026,515.289429 
	C962.388306,515.209961 964.317139,519.098267 963.750854,521.665405 
z"/>
<path fill="#202134" opacity="1.000000" stroke="none" 
	d="
M46.984127,48.711555 
	C47.115749,50.728802 46.252800,51.212067 44.868816,51.011345 
	C43.450817,50.805691 43.846848,49.615578 43.646263,48.704712 
	C43.154411,46.471161 44.998417,42.437603 42.004799,42.344173 
	C38.113522,42.222729 40.316643,46.408653 39.803204,48.682579 
	C39.541214,49.842903 39.699764,51.026318 38.014790,51.033653 
	C36.322948,51.041019 36.454910,49.865189 36.222755,48.691242 
	C35.780571,46.455223 37.637447,42.440350 34.722416,42.329575 
	C31.180887,42.194984 32.731899,46.311783 32.375340,48.673546 
	C32.204170,49.807346 32.474937,51.051281 30.675608,51.040890 
	C28.888748,51.030575 29.048340,49.819382 29.036158,48.667610 
	C29.025640,47.673187 29.008230,46.677917 29.035759,45.684181 
	C29.124489,42.481136 27.773758,38.710262 33.798374,39.264740 
	C36.914272,39.551514 40.200974,40.638779 43.624187,39.263954 
	C45.270123,38.602917 46.776962,40.736298 46.912189,42.800034 
	C47.031193,44.616138 46.968697,46.444134 46.984127,48.711555 
z"/>
<path fill="#202134" opacity="1.000000" stroke="none" 
	d="
M72.925125,51.241806 
	C71.381500,55.658813 66.502502,57.619572 63.071743,55.534847 
	C61.494553,54.576458 60.706070,53.318420 61.849403,51.395657 
	C63.081654,49.323360 63.767822,47.283028 62.590366,44.702705 
	C61.121593,41.483982 62.990459,39.471138 66.132027,39.168499 
	C68.311386,38.958553 72.515625,38.601284 72.453300,39.811584 
	C72.307449,42.643627 72.335808,46.666309 67.502731,47.336765 
	C69.182404,49.342487 72.270409,48.269226 72.925125,51.241806 
z"/>
<path fill="#1D1B19" opacity="1.000000" stroke="none" 
	d="
M384.264221,533.961304 
	C384.265076,531.333984 384.286133,529.175476 384.258148,527.017578 
	C384.244293,525.951416 384.328918,524.973328 385.663757,524.846069 
	C387.061615,524.712891 387.968903,525.257812 387.739380,526.808655 
	C387.328461,529.585266 388.698578,529.167419 390.821808,529.202637 
	C395.189636,529.275024 395.338257,532.810608 395.196777,536.091797 
	C395.054779,539.383484 393.610565,541.121582 389.915131,541.172180 
	C384.922852,541.240540 383.292908,539.072021 384.264221,533.961304 
z"/>
<path fill="#202134" opacity="1.000000" stroke="none" 
	d="
M100.237381,80.725288 
	C98.973930,80.711197 97.879959,80.055969 97.179863,80.347298 
	C93.005516,82.084312 90.269043,81.154831 89.853859,76.411148 
	C89.493790,72.297348 89.974327,68.401688 95.781174,69.347725 
	C97.552757,69.636345 97.119026,68.418167 97.201065,67.616241 
	C97.331604,66.340172 96.937889,64.782257 99.006721,64.838097 
	C101.474571,64.904694 100.726906,66.821960 100.732964,68.136818 
	C100.751991,72.264748 100.646271,76.393250 100.237381,80.725288 
z"/>
<path fill="#131211" opacity="1.000000" stroke="none" 
	d="
M372.620331,538.094360 
	C371.974060,540.671631 370.823792,541.624634 368.131897,540.576538 
	C369.628479,536.317139 371.200928,532.056946 372.601257,527.740845 
	C373.099823,526.204041 373.896271,525.616699 375.463226,525.714233 
	C376.742340,525.793884 377.591339,526.106140 378.044556,527.500549 
	C379.273712,531.282227 380.698700,534.999878 381.963531,538.770630 
	C382.180481,539.417480 382.935181,540.475952 381.791107,540.845032 
	C380.796173,541.165955 379.380981,541.566406 378.925201,539.912964 
	C377.930298,536.303833 375.367523,537.253418 372.620331,538.094360 
z"/>
<path fill="#FF2B31" opacity="1.000000" stroke="none" 
	d="
M388.618896,257.035217 
	C391.044617,256.438324 393.160126,255.366989 395.674774,256.897461 
	C400.669708,263.160675 400.320953,266.481171 394.070160,271.907104 
	C393.579224,266.382568 392.241821,261.469543 387.224426,258.636536 
	C387.588562,258.141510 387.952698,257.646515 388.618896,257.035217 
z"/>
<path fill="#14162B" opacity="1.000000" stroke="none" 
	d="
M129.090759,39.357185 
	C129.090698,41.632298 129.225449,43.468681 129.053482,45.275879 
	C128.873627,47.165985 129.651840,50.808441 128.354584,50.617447 
	C125.442429,50.188686 122.098740,52.825314 119.641762,49.816135 
	C117.833237,47.601143 117.638046,44.974911 118.652435,42.310444 
	C119.951996,38.896927 122.393303,38.456032 125.400475,39.809406 
	C127.143997,38.557331 124.043587,34.845375 127.702362,34.947849 
	C130.294891,35.020458 128.613312,37.555386 129.090759,39.357185 
z"/>
<path fill="#202134" opacity="1.000000" stroke="none" 
	d="
M115.776855,48.468090 
	C114.320236,53.099354 110.693451,49.806038 108.225327,50.970478 
	C106.690704,51.694504 105.133743,49.944237 104.979721,48.058697 
	C104.790550,45.742714 104.879547,43.403252 104.867874,41.073841 
	C104.862236,39.949188 105.224251,39.181458 106.569542,39.187832 
	C108.078735,39.194984 107.861595,40.295952 108.086266,41.235077 
	C108.656158,43.617310 106.502243,47.920212 109.813248,48.058468 
	C113.927368,48.230251 111.663620,43.737873 112.256142,41.312202 
	C112.506981,40.285313 112.616310,39.304474 113.899811,39.238232 
	C115.527740,39.154205 115.762276,40.289444 115.768044,41.553272 
	C115.777924,43.717350 115.775597,45.881481 115.776855,48.468090 
z"/>
<path fill="#181A2E" opacity="1.000000" stroke="none" 
	d="
M38.687180,72.396057 
	C38.839111,70.888283 38.667534,68.824989 40.067799,69.420586 
	C42.938316,70.641541 46.638206,67.018761 48.673141,70.773094 
	C50.220974,73.628731 49.445976,76.971001 49.284668,80.111458 
	C49.243637,80.910370 48.450512,81.009697 47.762360,81.006149 
	C46.827316,81.001320 46.163940,80.669121 46.146385,79.608124 
	C46.116074,77.775810 46.123734,75.942284 46.056675,74.111412 
	C46.019291,73.090736 45.835396,72.045815 44.515968,71.962845 
	C43.153839,71.877197 42.228455,72.583710 42.098438,73.928627 
	C41.938618,75.581879 42.005043,77.256241 41.950371,78.920715 
	C41.918240,79.899048 42.049702,80.950935 40.540489,81.029068 
	C38.869221,81.115593 38.658752,80.144196 38.680935,78.833778 
	C38.714771,76.834724 38.687572,74.834625 38.687180,72.396057 
z"/>
<path fill="#202134" opacity="1.000000" stroke="none" 
	d="
M87.039642,72.060768 
	C87.117943,74.785858 87.130272,77.116623 87.155594,79.447243 
	C87.166046,80.409836 86.794189,80.972748 85.754837,81.040634 
	C84.528908,81.120712 83.911743,80.676422 83.942123,79.371742 
	C83.980865,77.707764 83.952446,76.041191 83.911537,74.376747 
	C83.880707,73.122215 83.555878,72.037117 82.003754,71.996384 
	C80.479790,71.956383 79.999275,72.991058 79.903175,74.245468 
	C79.788902,75.736923 79.774323,77.237694 79.762169,78.734795 
	C79.751884,80.001511 79.605659,81.080727 77.932770,81.031975 
	C76.211884,80.981812 76.274292,79.767792 76.265488,78.584717 
	C76.256805,77.419014 76.086220,76.220436 76.297737,75.094734 
	C76.665131,73.139450 75.240387,69.262802 77.550064,69.616707 
	C80.610458,70.085655 84.972557,66.507721 87.039642,72.060768 
z"/>
<path fill="#131211" opacity="1.000000" stroke="none" 
	d="
M985.732605,516.816650 
	C983.555298,518.779419 980.403259,519.428223 976.891357,519.247864 
	C978.232300,523.289917 981.151062,521.093018 983.514832,521.461121 
	C983.340454,524.958557 980.672546,524.070618 978.824402,524.084534 
	C975.374756,524.110474 973.700806,521.969666 973.484192,518.744568 
	C973.293701,515.908386 974.080139,513.308350 977.130066,512.385071 
	C980.216858,511.450531 982.730286,512.346252 983.954651,515.595947 
	C984.243347,516.362122 984.257935,517.257324 985.732605,516.816650 
z"/>
<path fill="#202134" opacity="1.000000" stroke="none" 
	d="
M52.646667,39.273777 
	C55.554665,38.883839 58.265087,38.665443 59.416328,41.521156 
	C60.545387,44.321823 60.898052,48.083340 59.454201,50.097496 
	C58.425362,51.532707 54.297924,51.020332 51.581230,50.870453 
	C49.921852,50.778908 49.270351,48.924126 49.368443,47.431583 
	C49.543045,44.774792 51.481308,43.960964 53.875351,43.845333 
	C54.636650,43.808563 55.546150,43.989265 56.205639,42.720715 
	C55.301411,41.176121 53.771553,42.168953 52.520306,41.963852 
	C49.706882,41.502682 50.197998,40.457073 52.646667,39.273777 
z"/>
<path fill="#202134" opacity="1.000000" stroke="none" 
	d="
M75.761627,50.946510 
	C74.478943,49.120472 74.745682,47.222813 74.978287,45.486057 
	C75.257263,43.403137 73.661011,39.391647 76.125397,39.627758 
	C78.947182,39.898113 82.497856,36.977249 84.777092,40.529606 
	C86.696831,43.521664 85.803719,46.951984 85.626122,50.217281 
	C85.584976,50.973747 84.702423,51.021229 84.034035,51.020603 
	C83.076294,51.019707 82.465019,50.572117 82.432793,49.577435 
	C82.379112,47.920204 82.436615,46.257626 82.333946,44.604340 
	C82.264137,43.480309 82.270920,42.124645 80.673378,42.009415 
	C78.974060,41.886837 78.347557,43.094536 78.206673,44.500401 
	C78.058380,45.980076 78.085724,47.483807 78.128967,48.974335 
	C78.169113,50.358292 77.780167,51.225719 75.761627,50.946510 
z"/>
<path fill="#181A2E" opacity="1.000000" stroke="none" 
	d="
M109.964371,77.138870 
	C109.850906,71.249786 111.733665,68.763443 115.745895,69.074486 
	C119.225006,69.344200 121.485107,72.360237 120.983932,76.142960 
	C120.651497,78.652191 119.452103,80.564087 116.802780,81.023056 
	C113.715607,81.557869 111.221230,80.703911 109.964371,77.138870 
z"/>
<path fill="#181A2E" opacity="1.000000" stroke="none" 
	d="
M64.893417,79.938995 
	C62.276096,76.705544 62.109818,73.540115 64.590515,70.705269 
	C66.402039,68.635124 68.922638,68.446190 71.361298,69.871284 
	C73.286758,70.996468 74.113640,72.937721 73.661064,74.937080 
	C73.210213,76.928871 71.189705,75.745766 69.882607,76.009468 
	C68.800667,76.227745 67.591415,75.725365 66.590965,76.592293 
	C67.228302,78.986053 68.995430,78.940674 70.896782,78.579552 
	C71.766678,78.414322 72.880463,77.637337 72.942116,79.395370 
	C72.977341,80.399963 72.318390,80.871017 71.412033,80.963303 
	C69.287033,81.179672 67.129066,81.562798 64.893417,79.938995 
z"/>
<path fill="#1D1B19" opacity="1.000000" stroke="none" 
	d="
M986.249512,516.783569 
	C986.078430,516.380310 986.120361,516.533203 986.135925,516.569824 
	C986.659790,512.636108 989.589966,510.804565 992.869263,512.406860 
	C993.018066,512.479614 993.182190,512.527466 993.318665,512.617920 
	C994.367615,513.313110 993.835999,513.985107 993.640686,514.998474 
	C992.947632,518.594604 997.887390,524.946960 988.827454,524.135925 
	C987.595276,524.025696 985.699768,524.308228 986.071411,522.278015 
	C986.489807,519.992310 988.099243,521.966064 989.146484,521.802856 
	C989.777039,521.704590 990.466309,521.920105 991.021179,520.936401 
	C990.429443,518.712708 987.426636,519.054688 986.249512,516.783569 
z"/>
<path fill="#181A2E" opacity="1.000000" stroke="none" 
	d="
M99.122734,47.401703 
	C99.766388,49.102093 102.069519,47.780407 102.190910,49.735077 
	C102.239235,50.513309 101.805038,50.980698 101.029572,51.028191 
	C99.569855,51.117580 98.047523,51.524212 96.801247,50.314861 
	C95.350418,48.907021 95.123665,39.407745 96.410767,37.923336 
	C97.009224,37.233154 98.261261,36.624203 98.361732,37.041935 
	C98.857666,39.103893 101.283226,38.791374 101.966217,40.215736 
	C102.526810,41.384815 101.406746,41.607635 100.355339,41.968010 
	C97.602753,42.911472 99.637207,45.359238 99.122734,47.401703 
z"/>
<path fill="#202134" opacity="1.000000" stroke="none" 
	d="
M55.756218,74.244789 
	C55.567509,77.294113 56.358532,78.982002 59.425446,78.208588 
	C60.361397,77.972557 61.102825,77.997200 61.128876,79.182373 
	C61.148144,80.058914 60.867992,80.853989 59.830120,80.984955 
	C57.501705,81.278755 55.004978,81.688065 53.413338,79.466232 
	C51.485847,76.775589 51.479443,73.781990 53.410885,71.091530 
	C54.931324,68.973579 57.304604,68.719582 59.720955,69.231789 
	C60.541866,69.405807 61.294136,69.894753 61.137760,70.934814 
	C60.980358,71.981712 60.226326,72.143898 59.306896,72.033684 
	C57.761684,71.848457 56.243736,71.765793 55.756218,74.244789 
z"/>
<path fill="#643945" opacity="1.000000" stroke="none" 
	d="
M291.379700,492.760498 
	C290.710541,491.934692 290.471619,491.241760 290.113251,490.292542 
	C291.196960,489.883575 292.400146,489.730865 294.014801,489.383484 
	C295.015747,488.886414 295.654663,488.786316 296.627930,488.704315 
	C297.168182,488.670563 297.384644,488.661652 297.925964,488.646179 
	C298.684998,488.636627 299.119171,488.637665 299.880981,488.633514 
	C301.310120,488.625366 302.411804,488.629547 303.827698,488.303741 
	C304.630890,488.290741 305.069305,488.406769 305.660583,488.911987 
	C307.319946,489.333649 308.801880,489.459198 310.709595,489.713562 
	C310.278015,490.674774 309.420624,491.507172 308.355896,492.498657 
	C302.711884,493.399139 297.256897,492.866852 291.379700,492.760498 
z"/>
<path fill="#131211" opacity="1.000000" stroke="none" 
	d="
M414.264099,540.377808 
	C414.082123,535.643738 414.100159,531.325195 414.040985,527.007690 
	C414.022430,525.655090 414.245361,524.732727 415.894501,524.840393 
	C417.343140,524.935059 417.318878,525.930786 417.319214,526.949524 
	C417.320435,530.935730 417.266907,534.922791 417.338043,538.907715 
	C417.379639,541.238159 416.091736,541.229736 414.264099,540.377808 
z"/>
<path fill="#FF2B31" opacity="1.000000" stroke="none" 
	d="
M404.489502,298.251831 
	C399.578949,294.974792 399.651306,289.902893 404.777069,285.270386 
	C405.345978,289.736481 408.713257,293.767120 404.489502,298.251831 
z"/>
<path fill="#131211" opacity="1.000000" stroke="none" 
	d="
M404.652954,531.922546 
	C400.774139,532.576599 401.164520,535.240356 401.049835,537.745789 
	C400.993256,538.981262 401.994476,541.124023 399.408539,540.982117 
	C396.983521,540.848999 398.134460,538.792053 397.958160,537.555176 
	C397.773315,536.258179 397.826996,534.906494 397.941193,533.593079 
	C398.063690,532.184082 397.682770,529.377014 398.637634,529.652222 
	C400.959137,530.321228 402.974518,528.869995 405.005188,529.507263 
	C405.654236,529.710938 405.334900,530.977173 404.652954,531.922546 
z"/>
<path fill="#851D2B" opacity="1.000000" stroke="none" 
	d="
M220.657318,489.984863 
	C220.832657,490.337280 220.566879,490.602142 220.031219,490.961151 
	C215.025635,493.747070 209.778412,493.179169 204.328186,493.181396 
	C202.962173,492.937012 201.926849,492.936371 200.381409,492.841064 
	C198.685455,492.007751 197.499603,491.269104 196.123993,490.292480 
	C197.671570,489.971527 199.408920,489.888550 201.571915,489.724518 
	C205.650345,487.891174 209.401154,488.349457 213.581146,489.386169 
	C216.068878,489.715179 218.142548,489.806244 220.657318,489.984863 
z"/>
<path fill="#FF8C88" opacity="1.000000" stroke="none" 
	d="
M119.647682,323.024109 
	C120.740265,322.952637 121.532784,322.960968 122.719368,322.913696 
	C127.309486,325.919647 127.312187,329.930481 122.715202,333.626526 
	C122.349358,330.005035 121.389915,326.840393 118.552818,324.582245 
	C118.090935,324.214630 118.685738,323.405365 119.647682,323.024109 
z"/>
<path fill="#FA8985" opacity="1.000000" stroke="none" 
	d="
M207.791199,273.825562 
	C210.067780,275.637695 212.469971,277.008392 212.096130,280.578918 
	C210.490570,282.519653 208.705734,282.468750 206.414963,281.239258 
	C206.002365,280.998322 205.570984,280.896149 205.358673,280.833344 
	C204.890518,280.187714 204.790863,279.419006 204.353836,279.051849 
	C201.211075,276.411591 202.400406,275.019714 206.012939,274.022308 
	C206.712997,273.642029 207.108627,273.553009 207.791199,273.825562 
z"/>
<path fill="#FF8C88" opacity="1.000000" stroke="none" 
	d="
M219.450195,309.484314 
	C218.867554,311.067932 218.520142,312.598602 216.930237,312.647034 
	C215.240570,312.698547 214.964661,310.973389 214.578705,309.841309 
	C213.417038,306.433899 213.616730,303.345886 217.499069,301.430603 
	C218.527573,304.022888 219.495743,306.453064 219.450195,309.484314 
z"/>
<path fill="#181A2E" opacity="1.000000" stroke="none" 
	d="
M35.330704,73.345001 
	C35.330677,73.935844 35.383141,74.124748 35.322762,74.265114 
	C34.394108,76.424072 37.379353,80.748047 33.558136,80.659691 
	C30.329489,80.585045 32.781460,76.296516 32.063858,74.010582 
	C31.968803,73.707779 31.989426,73.335365 32.061607,73.019188 
	C32.359035,71.716324 31.181740,69.565514 33.384228,69.335136 
	C36.192661,69.041382 35.033051,71.508530 35.330704,73.345001 
z"/>
<path fill="#131211" opacity="1.000000" stroke="none" 
	d="
M408.398682,540.843140 
	C407.895020,537.536621 407.778168,534.392883 407.717499,531.248047 
	C407.697235,530.196106 407.947235,529.244934 409.319489,529.254944 
	C410.022614,529.260010 410.814423,529.462830 410.805603,530.204285 
	C410.763306,533.764771 411.688843,537.388367 410.236481,540.851685 
	C410.146942,541.065186 409.301270,540.961548 408.398682,540.843140 
z"/>
<path fill="#FF8C88" opacity="1.000000" stroke="none" 
	d="
M206.181046,281.347595 
	C207.746201,280.994659 209.490021,280.990997 211.674194,280.970642 
	C212.114517,280.953949 212.564682,280.989716 212.790497,280.994873 
	C211.694260,283.673767 211.787262,287.260376 207.819183,288.589539 
	C207.330231,286.280304 206.844986,283.988617 206.181046,281.347595 
z"/>
<path fill="#0F0F24" opacity="1.000000" stroke="none" 
	d="
M90.057999,39.302460 
	C93.638596,42.717197 91.657448,46.743122 91.668472,50.537785 
	C91.668877,50.678009 90.555656,50.944401 89.965408,50.933582 
	C89.151688,50.918674 88.926041,50.217442 88.973740,49.548183 
	C89.215897,46.150120 88.223618,42.673393 90.057999,39.302460 
z"/>
<path fill="#0F0F24" opacity="1.000000" stroke="none" 
	d="
M107.074112,72.329796 
	C107.074539,74.597221 107.132851,76.411621 107.053307,78.219955 
	C107.001869,79.389328 107.646606,81.075226 105.396858,81.000977 
	C103.549133,80.939972 103.976791,79.548584 103.953362,78.499863 
	C103.901878,76.195084 103.918182,73.888023 103.949585,71.582481 
	C103.965141,70.439735 103.861839,69.126335 105.649597,69.274498 
	C107.413750,69.420715 106.927940,70.826508 107.074112,72.329796 
z"/>
<path fill="#FA8F8A" opacity="1.000000" stroke="none" 
	d="
M305.577454,360.347229 
	C303.551483,357.068054 303.988251,354.555267 307.522095,351.992401 
	C307.322937,355.402069 311.194641,358.702606 305.577454,360.347229 
z"/>
<path fill="#FF8C88" opacity="1.000000" stroke="none" 
	d="
M131.141174,346.769348 
	C132.225677,349.039490 131.977997,350.884094 129.969482,351.629028 
	C128.680954,352.106934 128.124619,350.514984 128.039413,349.345093 
	C127.884590,347.219269 127.430023,344.573120 130.020050,343.841797 
	C131.629272,343.387390 130.656967,345.521698 131.141174,346.769348 
z"/>
<path fill="#643945" opacity="1.000000" stroke="none" 
	d="
M204.274734,493.040924 
	C209.066513,492.916901 214.059525,492.246338 219.383881,491.118469 
	C219.836258,491.433716 219.911163,491.812103 219.997223,492.479919 
	C214.856262,492.894287 209.704117,493.019226 204.274734,493.040924 
z"/>
<path fill="#2E2D3E" opacity="1.000000" stroke="none" 
	d="
M34.892380,67.519440 
	C33.148338,68.190750 32.007954,67.875908 32.078430,66.039146 
	C32.116123,65.056717 33.002506,64.778152 33.870911,64.856377 
	C35.502544,65.003357 35.645660,65.975769 34.892380,67.519440 
z"/>
<path fill="#131211" opacity="1.000000" stroke="none" 
	d="
M410.507660,527.321045 
	C408.981812,528.216980 407.998932,527.981262 407.736725,526.481506 
	C407.577148,525.568665 408.116974,524.927124 409.110931,524.919434 
	C410.555939,524.908325 411.258575,525.531311 410.507660,527.321045 
z"/>
<path fill="#202134" opacity="1.000000" stroke="none" 
	d="
M92.041870,35.943291 
	C91.826591,37.761024 90.949310,38.305740 89.675133,37.696281 
	C88.887108,37.319351 88.596802,36.276443 89.076111,35.609184 
	C89.872215,34.500908 90.975220,34.625637 92.041870,35.943291 
z"/>
<path fill="#202134" opacity="1.000000" stroke="none" 
	d="
M105.089920,64.927307 
	C107.031616,65.008759 107.454865,65.892509 106.834206,67.176376 
	C106.434677,68.002815 105.442123,68.213417 104.759773,67.739334 
	C103.673195,66.984398 103.466545,65.949509 105.089920,64.927307 
z"/>
<path fill="#FA8F8A" opacity="1.000000" stroke="none" 
	d="
M223.797928,489.527832 
	C223.360687,489.787323 222.982010,489.853027 222.317810,489.836670 
	C222.423264,489.513184 222.814224,489.271759 223.434998,489.003937 
	C223.664795,488.977509 223.856491,489.334076 223.797928,489.527832 
z"/>
<path fill="#FA8F8A" opacity="1.000000" stroke="none" 
	d="
M193.893890,489.636047 
	C193.981277,489.796021 193.621368,489.924805 193.453751,489.841125 
	C193.286133,489.757446 193.151855,489.403625 193.196198,489.219940 
	C193.468094,489.132782 193.656738,489.279388 193.893890,489.636047 
z"/>
<path fill="#FFE487" opacity="1.000000" stroke="none" 
	d="
M404.185242,426.171936 
	C406.426880,426.625153 407.393372,424.715790 408.951508,424.451019 
	C409.234314,424.728973 409.649719,424.950958 409.641449,425.155762 
	C409.140930,437.509186 410.471497,449.668365 412.865448,461.793457 
	C414.749725,471.336945 411.902466,479.714325 405.643616,487.252594 
	C399.411316,494.758911 387.941284,494.450531 382.744812,486.156616 
	C378.930847,480.069244 378.252777,473.422394 379.385468,466.458740 
	C381.495209,453.488556 390.223877,441.234711 382.693024,426.695984 
	C387.743164,430.357819 388.674164,428.886597 389.420929,424.273041 
	C390.547577,417.312683 391.067932,410.081696 394.576691,403.366821 
	C396.928070,406.380066 396.492981,409.797241 396.933899,413.004242 
	C397.646027,418.183868 398.803894,423.154694 404.185242,426.171936 
z"/>
<path fill="#FFE487" opacity="1.000000" stroke="none" 
	d="
M384.886536,351.109528 
	C385.463745,350.101959 385.616425,348.423035 386.815735,349.899841 
	C387.474976,350.711731 387.335724,352.399872 388.981903,351.915894 
	C390.242249,351.545319 390.216949,350.075531 390.702332,349.060089 
	C390.770752,348.916870 390.767639,348.736145 390.783173,348.571411 
	C391.116119,345.035828 391.567657,340.472351 395.531372,340.367096 
	C399.273285,340.267822 400.345520,345.029083 401.365082,348.215790 
	C404.213287,357.117798 404.810638,365.851624 397.343414,373.181366 
	C395.592163,374.900299 395.474976,378.779602 393.175110,378.835480 
	C390.599030,378.898071 389.538971,375.364441 387.881958,373.373230 
	C382.378082,366.759369 381.665344,359.363342 384.886536,351.109528 
z"/>
<path fill="#FFE9B3" opacity="1.000000" stroke="none" 
	d="
M202.285522,488.442474 
	C195.421890,482.538544 193.266541,475.322845 194.482086,467.066833 
	C195.378265,460.980194 197.391174,455.150269 199.216034,449.275635 
	C201.205704,442.870392 199.979797,436.475250 197.916214,430.217102 
	C200.130981,428.975403 200.901672,432.955078 202.717773,431.217010 
	C204.142242,429.853760 203.707855,427.801331 204.031723,426.019562 
	C205.089035,420.202850 205.576141,414.225861 208.378143,408.345398 
	C210.896072,411.874573 209.812897,415.747620 210.885300,419.121643 
	C211.434402,420.849152 211.777161,422.635193 212.619568,424.277283 
	C214.589905,428.118011 217.091400,430.571564 222.643356,426.996613 
	C219.717987,441.370453 225.003845,454.166199 225.204559,467.454163 
	C225.342712,476.600220 220.461411,482.615021 214.075867,488.436310 
	C210.104568,490.113464 206.342865,489.829224 202.285522,488.442474 
z"/>
<path fill="#FFE9B3" opacity="1.000000" stroke="none" 
	d="
M211.287567,380.293762 
	C207.173309,386.832214 207.157745,386.844910 202.213150,380.779694 
	C197.474716,374.967346 196.841736,368.481476 199.328018,361.601105 
	C199.794449,360.310333 200.205093,357.684540 202.262405,360.938477 
	C203.469330,362.847443 204.169067,360.626160 204.465714,359.833710 
	C205.216705,357.827423 205.421982,355.595276 206.308273,353.666016 
	C207.828522,350.356689 210.145752,350.225555 212.340027,353.081299 
	C217.609482,359.939240 217.204346,373.328796 211.287567,380.293762 
z"/>
<path fill="#FA8F8A" opacity="1.000000" stroke="none" 
	d="
M201.998199,488.349152 
	C205.572250,489.603973 209.299377,488.859344 213.413055,488.754395 
	C213.848175,488.675934 213.935989,489.148010 213.965607,489.386047 
	C210.298935,489.686646 206.602646,489.749176 202.451950,489.727570 
	C201.997910,489.298218 201.998260,488.953003 201.998199,488.349152 
z"/>
<path fill="#281A2D" opacity="1.000000" stroke="none" 
	d="
M378.582214,244.409561 
	C378.309937,242.601639 379.143982,240.286224 377.413971,240.108902 
	C375.179840,239.879898 376.183350,242.266006 375.916046,243.555344 
	C375.725616,244.473770 376.113495,245.813049 374.712891,245.869507 
	C372.893219,245.942841 373.358765,244.365738 373.259277,243.307907 
	C372.782410,238.238327 373.714905,237.310196 378.862823,237.660416 
	C386.008026,238.146515 386.747437,238.779327 386.101990,243.843399 
	C386.003265,244.618042 386.255463,245.712769 385.189606,245.842270 
	C383.667755,246.027161 383.894592,244.727524 383.824493,243.790619 
	C383.774902,243.127762 383.807983,242.459167 383.781281,241.794037 
	C383.745880,240.911316 383.459442,239.960068 382.541290,239.896286 
	C381.208984,239.803680 381.199036,240.983810 381.022583,241.975586 
	C380.402985,245.458145 380.380341,245.454117 378.582214,244.409561 
z"/>
<path fill="#281A2D" opacity="1.000000" stroke="none" 
	d="
M403.721985,241.545074 
	C402.602295,242.455658 401.648987,243.046906 400.704193,243.632874 
	C402.277496,244.533585 405.615204,244.161957 404.670349,247.301315 
	C403.879364,249.929489 401.243500,250.001511 398.822845,249.579391 
	C398.507507,249.524399 398.086182,249.413254 397.934540,249.182922 
	C395.819702,245.970062 397.636017,242.469421 397.745239,239.235870 
	C397.832886,236.639023 401.597198,237.259064 403.685913,237.771515 
	C406.211609,238.391159 403.076843,240.075974 403.721985,241.545074 
z"/>
<path fill="#281A2D" opacity="1.000000" stroke="none" 
	d="
M410.022766,237.669876 
	C413.439087,238.666382 415.274628,242.691483 413.840637,245.182877 
	C413.639740,245.531860 413.111725,245.911484 412.756195,245.891998 
	C412.388092,245.871841 411.798584,245.428131 411.737091,245.091034 
	C411.531433,243.963715 411.576843,242.792725 411.411530,241.655106 
	C411.300537,240.891388 411.250000,239.920517 410.093567,239.953995 
	C408.985321,239.986084 408.874969,240.916916 408.751648,241.701981 
	C408.573517,242.836365 408.659729,244.029755 408.358124,245.122025 
	C408.087952,246.100494 406.645935,246.232880 406.522217,245.596451 
	C406.120392,243.529251 406.006683,241.359528 406.127930,239.249161 
	C406.272675,236.730484 408.565308,238.546478 410.022766,237.669876 
z"/>
<path fill="#14162B" opacity="1.000000" stroke="none" 
	d="
M442.668945,236.811493 
	C442.860596,235.441010 442.919189,234.207275 444.344757,234.617325 
	C445.163818,234.852905 445.462860,245.383896 444.662720,245.564301 
	C442.989105,245.941650 441.146576,246.212296 439.498291,245.889389 
	C437.626099,245.522629 437.180328,243.654877 437.166138,241.936310 
	C437.152161,240.242645 437.513855,238.660446 439.327972,237.828445 
	C440.393524,237.339767 441.685425,238.246658 442.668945,236.811493 
z"/>
<path fill="#281A2D" opacity="1.000000" stroke="none" 
	d="
M427.377411,243.546021 
	C427.253632,242.131927 427.204987,241.133530 427.216125,240.135803 
	C427.227325,239.133575 427.250336,237.893234 428.566193,237.920166 
	C429.887787,237.947220 429.685608,239.236343 429.883698,240.195557 
	C430.149414,241.482132 428.986542,243.782913 431.213257,243.774796 
	C433.126251,243.767822 432.664825,241.565414 432.813080,240.138306 
	C432.908081,239.224121 432.531342,237.860687 433.985413,237.862442 
	C435.484985,237.864258 435.213531,239.315140 435.057434,240.134659 
	C434.691284,242.057022 436.540283,245.023529 433.819550,245.691299 
	C431.931000,246.154785 428.709900,247.580048 427.377411,243.546021 
z"/>
<path fill="#281A2D" opacity="1.000000" stroke="none" 
	d="
M352.948730,244.656540 
	C353.583679,241.786148 350.739594,237.733795 356.423553,237.638474 
	C359.514191,237.586639 360.798401,238.638397 360.750854,241.436432 
	C360.725525,242.926193 361.786133,245.445038 359.755096,245.710022 
	C357.054962,246.062363 358.563568,243.357971 358.173767,242.025177 
	C357.911682,241.129257 358.175140,239.810028 356.779633,239.916595 
	C355.638458,240.003723 355.658813,241.279160 355.199738,242.104492 
	C354.611938,243.161240 357.158020,246.749268 352.948730,244.656540 
z"/>
<path fill="#14162B" opacity="1.000000" stroke="none" 
	d="
M389.597656,245.896271 
	C385.449799,240.938705 390.582092,241.607254 392.557861,240.361618 
	C392.170593,238.250473 389.585266,240.512085 389.080353,238.495789 
	C390.869385,237.144135 392.934174,237.016342 394.410614,238.528824 
	C396.017303,240.174805 395.677551,242.765137 395.049133,244.644806 
	C394.308533,246.860062 391.718811,245.511612 389.597656,245.896271 
z"/>
<path fill="#281A2D" opacity="1.000000" stroke="none" 
	d="
M420.441010,238.505157 
	C421.576691,237.255768 421.826538,235.075470 424.222046,237.085114 
	C426.217285,238.758957 425.050964,238.977814 424.093048,240.195404 
	C422.326569,242.440872 424.840363,243.814957 425.986450,245.490341 
	C422.797821,246.734772 421.258545,245.880249 421.020905,242.719650 
	C420.923462,241.423569 420.578308,240.146118 420.441010,238.505157 
z"/>
<path fill="#2E2D3E" opacity="1.000000" stroke="none" 
	d="
M415.999969,240.072037 
	C416.232056,237.985367 416.460815,236.348099 416.689575,234.710831 
	C418.319885,237.423584 418.859528,240.203568 418.672089,243.107880 
	C418.603851,244.165405 419.050781,245.766953 417.453247,245.859482 
	C415.267914,245.986023 416.215546,244.063019 416.024017,242.966873 
	C415.885529,242.174332 415.996765,241.338150 415.999969,240.072037 
z"/>
<path fill="#926D72" opacity="1.000000" stroke="none" 
	d="
M113.832436,306.392487 
	C113.594261,308.145813 114.549820,309.937775 112.721779,310.717010 
	C111.752869,311.130005 111.359993,310.239868 111.152100,309.359467 
	C110.834412,308.014038 111.668266,306.365875 110.007347,305.197235 
	C109.666618,305.496277 109.239838,305.726562 109.025566,306.084167 
	C108.147034,307.550385 109.755089,310.541199 107.358940,310.655701 
	C105.052574,310.765900 106.422966,308.028198 105.945724,306.620941 
	C105.737640,306.007385 105.738518,305.240936 104.879318,305.222900 
	C103.865540,305.201630 103.577705,305.999084 103.286972,306.799255 
	C102.823257,308.075500 103.840256,309.836121 101.543777,310.971649 
	C101.314987,308.006561 99.008362,304.875000 102.777672,303.037720 
	C106.707581,301.122131 112.492485,302.997131 113.832436,306.392487 
z"/>
<path fill="#926D72" opacity="1.000000" stroke="none" 
	d="
M131.355591,309.938354 
	C132.545670,311.986847 132.155151,313.354614 130.282928,314.248291 
	C128.677780,315.014435 127.096260,315.032776 125.508789,314.206757 
	C123.290039,313.052246 124.517189,311.496887 124.917694,309.951080 
	C125.159988,309.015961 125.210320,307.947510 125.026115,307.001434 
	C124.518501,304.394287 125.339485,302.702087 128.068817,302.412872 
	C129.445038,302.267029 131.689423,301.732758 131.807938,303.624115 
	C131.951477,305.914673 131.171860,308.413055 126.557640,308.137024 
	C128.980331,308.976593 130.024124,309.338318 131.355591,309.938354 
z"/>
<path fill="#987175" opacity="1.000000" stroke="none" 
	d="
M172.812225,302.483459 
	C172.813400,304.396362 172.811920,305.886566 172.812836,307.376770 
	C172.813965,309.250244 172.954926,311.025940 170.095032,310.960388 
	C167.887344,310.909790 165.645477,311.392792 164.887253,308.547699 
	C164.301285,306.348907 164.309601,304.071106 166.595642,302.909180 
	C168.184784,302.101471 169.495834,301.781433 170.760620,299.928619 
	C172.081482,297.993622 172.635605,300.678467 172.812225,302.483459 
z"/>
<path fill="#987175" opacity="1.000000" stroke="none" 
	d="
M122.422287,310.453857 
	C120.980766,310.848236 119.844658,310.964600 118.706047,311.045563 
	C117.070847,311.161865 115.688065,310.712891 115.367516,308.913513 
	C115.091377,307.363464 116.040733,306.381348 117.461479,306.074493 
	C119.414001,305.652802 120.262466,305.370728 117.635513,304.463867 
	C116.879555,304.202881 116.947365,303.388062 117.587074,302.936157 
	C118.776749,302.095734 120.082764,302.064453 121.258049,302.930969 
	C123.896873,304.876556 122.921677,307.608765 122.422287,310.453857 
z"/>
<path fill="#926D72" opacity="1.000000" stroke="none" 
	d="
M160.790207,310.852936 
	C154.722412,310.995544 153.607376,308.997009 156.268280,301.865204 
	C156.610031,302.747040 156.760132,303.196014 156.954498,303.624908 
	C157.699570,305.269257 155.986755,308.371674 158.773193,308.515228 
	C160.906113,308.625122 159.708939,305.846161 160.175339,304.414124 
	C160.399261,303.726624 160.683304,303.128082 161.416672,303.140808 
	C161.798737,303.147400 162.501358,303.610870 162.499664,303.864227 
	C162.483597,306.267151 164.350998,309.049225 160.790207,310.852936 
z"/>
<path fill="#926D72" opacity="1.000000" stroke="none" 
	d="
M87.687241,310.324707 
	C84.687614,310.276459 86.323540,308.074158 85.872414,306.747559 
	C85.591560,305.921692 85.366173,305.069031 84.403580,305.059784 
	C83.409973,305.050171 83.210236,305.928284 82.970192,306.759949 
	C82.568977,308.150055 83.939629,310.537384 81.374390,310.693909 
	C79.884804,310.784790 80.044579,308.937592 80.215202,307.903290 
	C80.513016,306.097870 78.836990,303.513031 82.438538,302.876923 
	C86.057053,302.237823 88.415909,302.613251 88.099533,307.024323 
	C88.028671,308.012268 87.982590,309.002014 87.687241,310.324707 
z"/>
<path fill="#88666C" opacity="1.000000" stroke="none" 
	d="
M138.583252,305.504517 
	C133.963699,305.118195 137.383179,309.395386 134.942825,310.725952 
	C132.951675,308.645386 133.329468,305.791168 134.395981,303.821686 
	C135.223083,302.294281 138.282059,302.108490 139.786621,303.264160 
	C142.372757,305.250641 141.251465,308.057190 140.430374,311.333008 
	C138.479309,309.371674 139.358810,307.401001 138.583252,305.504517 
z"/>
<path fill="#88666C" opacity="1.000000" stroke="none" 
	d="
M151.374588,308.521973 
	C152.156693,309.294922 153.356216,309.754120 152.422821,310.591583 
	C151.488739,311.429657 149.762375,311.257050 149.448135,310.084503 
	C148.828796,307.773560 148.664642,305.306427 148.619919,302.898193 
	C148.607803,302.245087 149.506851,300.648102 150.602615,301.661194 
	C151.261063,302.269989 153.651688,302.772705 151.994019,304.530548 
	C150.902420,305.688080 151.013565,306.891785 151.374588,308.521973 
z"/>
<path fill="#926D72" opacity="1.000000" stroke="none" 
	d="
M91.402802,304.669769 
	C89.413185,302.761932 89.704460,301.191711 91.756645,300.229828 
	C93.115891,299.592712 94.498535,300.352539 94.794090,301.787079 
	C95.263634,304.066101 94.046501,305.105743 91.402802,304.669769 
z"/>
<path fill="#88666C" opacity="1.000000" stroke="none" 
	d="
M143.834503,306.122620 
	C143.998810,304.811401 143.585831,303.521606 144.901428,303.362732 
	C146.077377,303.220764 145.988541,304.416443 145.946655,305.114258 
	C145.836044,306.957550 146.626083,308.949188 145.083588,310.882050 
	C143.309967,309.724274 144.018738,307.991974 143.834503,306.122620 
z"/>
<path fill="#926D72" opacity="1.000000" stroke="none" 
	d="
M183.578308,261.937286 
	C186.350143,260.897217 189.109360,261.370544 191.207794,261.745453 
	C196.139694,262.626556 193.608063,266.661133 193.661423,270.028198 
	C192.845474,269.513489 192.302017,269.364777 192.123032,269.024414 
	C191.317429,267.492462 192.859695,264.484222 190.635422,264.310822 
	C187.867752,264.095062 189.517746,267.102905 188.937164,268.592621 
	C188.672180,269.272552 188.390884,269.856659 187.651993,269.816284 
	C186.939133,269.777405 186.557190,269.226044 186.399643,268.502808 
	C186.095505,267.106659 186.669708,265.493835 185.353607,264.183105 
	C184.934341,264.461639 184.422989,264.625214 184.212769,264.971588 
	C183.318527,266.444855 184.959030,268.792175 182.660126,269.753937 
	C181.976822,270.039825 181.217484,269.325409 181.343063,268.685516 
	C181.789886,266.408936 179.254532,263.275116 183.578308,261.937286 
z"/>
<path fill="#926D72" opacity="1.000000" stroke="none" 
	d="
M208.393433,273.948914 
	C207.665314,273.971680 207.289703,273.921448 206.634338,273.883820 
	C203.653671,270.391693 205.686722,266.499603 205.969971,262.955414 
	C206.135269,260.887085 209.797424,260.897339 211.518890,262.007690 
	C213.340942,263.182922 212.008453,264.907837 210.385071,266.077240 
	C210.030640,266.029358 209.721115,265.726349 209.874802,265.879333 
	C210.676559,266.889679 207.806519,267.194153 209.580322,267.929108 
	C211.125671,268.569427 213.003784,268.684052 212.762650,270.861115 
	C212.517410,273.075195 210.436356,273.324829 208.393433,273.948914 
z"/>
<path fill="#926D72" opacity="1.000000" stroke="none" 
	d="
M252.922852,261.559631 
	C252.923782,263.296204 253.055023,264.629547 252.889511,265.925018 
	C252.692215,267.469360 253.866592,269.832886 250.702148,269.851318 
	C248.610138,269.863495 246.168564,270.739349 245.289993,267.921814 
	C244.584702,265.659973 244.430069,263.029205 247.002335,261.889221 
	C248.587036,261.186920 249.613388,260.450867 250.870682,259.194977 
	C252.998260,257.069702 252.662003,259.919617 252.922852,261.559631 
z"/>
<path fill="#926D72" opacity="1.000000" stroke="none" 
	d="
M221.990234,266.971649 
	C221.860428,268.304077 222.196045,269.535126 220.836151,269.766846 
	C219.764236,269.949463 219.534561,269.058075 219.332596,268.214050 
	C219.015640,266.889526 219.864914,265.183502 218.162369,264.288208 
	C217.814484,264.460205 217.472397,264.530670 217.281723,264.739441 
	C215.971603,266.173798 218.067734,269.126923 215.279633,269.731049 
	C214.060623,269.995178 213.872757,268.373474 214.095108,267.489899 
	C214.574112,265.586426 212.345673,262.599670 216.222229,261.972595 
	C218.351349,261.628204 220.620377,260.766785 221.680267,263.617828 
	C222.013931,264.515381 221.901077,265.578857 221.990234,266.971649 
z"/>
<path fill="#987175" opacity="1.000000" stroke="none" 
	d="
M168.882721,265.377869 
	C168.629852,267.137939 169.666351,269.340027 167.776199,269.645721 
	C165.357239,270.036896 166.374329,267.652313 166.089310,266.403259 
	C165.877548,265.475189 166.100143,264.137939 164.707596,264.248352 
	C163.577408,264.337891 163.337158,265.502380 163.205994,266.535187 
	C163.066223,267.635712 163.432175,268.896667 161.889832,270.016663 
	C160.604050,267.206329 159.599304,263.970398 162.174316,262.286682 
	C164.291992,260.901978 168.228653,260.156433 168.882721,265.377869 
z"/>
<path fill="#926D72" opacity="1.000000" stroke="none" 
	d="
M236.713226,269.584900 
	C235.071945,267.831299 235.065826,266.008972 235.171753,264.178345 
	C235.228455,263.198273 235.281662,262.035553 236.675003,262.140869 
	C237.700470,262.218353 237.687408,263.207428 237.888489,264.010010 
	C238.209320,265.290558 237.100357,267.665924 239.225601,267.586121 
	C241.377686,267.505310 240.617645,265.032471 240.961792,263.527374 
	C241.064850,263.076721 241.362488,262.670532 241.727585,261.923645 
	C244.040985,264.056946 243.446518,266.812256 242.733627,268.681091 
	C241.835220,271.036224 239.080475,269.808167 236.713226,269.584900 
z"/>
<path fill="#88666C" opacity="1.000000" stroke="none" 
	d="
M196.297699,266.530945 
	C197.313629,264.746582 199.179535,265.390198 200.246185,264.407562 
	C199.733612,262.991364 197.852112,264.312134 197.274414,262.476501 
	C199.404739,261.183990 201.725876,260.695831 202.767883,263.406677 
	C203.474655,265.245453 204.526520,268.430847 201.864227,269.509674 
	C199.901505,270.305084 196.261337,271.555756 196.297699,266.530945 
z"/>
<path fill="#987175" opacity="1.000000" stroke="none" 
	d="
M232.263840,267.469666 
	C233.274963,268.328033 234.462662,269.025726 232.925674,269.824066 
	C231.701447,270.459930 230.033081,270.189941 229.566299,268.718079 
	C228.933167,266.721741 228.518234,264.555908 228.585663,262.481506 
	C228.617676,261.496277 229.668198,259.642883 231.268677,260.480682 
	C232.305649,261.023499 235.004608,261.732941 232.660751,263.957062 
	C231.670013,264.897156 231.808472,266.017548 232.263840,267.469666 
z"/>
<path fill="#987175" opacity="1.000000" stroke="none" 
	d="
M226.031158,259.533630 
	C226.338379,262.508301 226.609680,265.097778 226.760574,267.694275 
	C226.817856,268.679871 226.621948,269.766022 225.287781,269.793121 
	C224.548111,269.808197 224.143372,269.197784 224.116211,268.485596 
	C223.992462,265.243011 223.779846,261.991577 224.720306,258.821350 
	C224.723404,258.810913 225.520844,259.036102 226.031158,259.533630 
z"/>
<path fill="#987175" opacity="1.000000" stroke="none" 
	d="
M292.019073,336.750977 
	C288.897278,335.852173 291.270660,332.733978 289.347015,331.374695 
	C289.070099,331.444183 288.676453,331.422882 288.489136,331.609131 
	C287.047089,333.042908 289.111664,336.571625 286.641541,336.604980 
	C283.673584,336.644989 286.160034,332.818420 284.309570,331.394775 
	C282.551422,331.306305 283.040649,332.795746 282.830963,333.803497 
	C282.586914,334.976379 283.222076,336.963623 281.188446,336.710419 
	C279.382202,336.485504 280.257233,334.574951 280.005981,333.386597 
	C279.172028,329.442017 281.165222,328.174805 284.721436,328.432465 
	C285.371368,328.479553 286.003448,328.781097 286.653046,328.823608 
	C293.628967,329.280060 293.801056,329.505096 292.019073,336.750977 
z"/>
<path fill="#926D72" opacity="1.000000" stroke="none" 
	d="
M302.916748,337.386871 
	C304.603210,335.800964 304.280334,334.136963 304.065186,332.494293 
	C303.855377,330.892670 304.057373,329.475952 305.795044,328.795166 
	C307.571960,328.099030 309.461823,327.836609 311.039368,328.991791 
	C312.115784,329.780029 310.533051,332.537170 307.824738,334.516968 
	C309.353271,335.566803 312.672882,335.441620 311.438690,338.334778 
	C310.130463,341.401367 307.370117,341.285919 304.266785,340.093262 
	C302.903748,339.507355 302.402313,338.783508 302.916748,337.386871 
z"/>
<path fill="#987175" opacity="1.000000" stroke="none" 
	d="
M348.964264,327.423401 
	C349.155701,326.249512 349.290588,325.354279 350.402863,325.386230 
	C351.470093,325.416870 351.728455,326.265411 351.760651,327.121216 
	C351.823120,328.783264 351.836761,330.449097 351.807281,332.112244 
	C351.764893,334.505432 352.542419,337.230408 348.334808,337.062683 
	C345.761810,336.960083 343.978607,336.437195 343.710052,333.783295 
	C343.417755,330.895203 343.966339,328.356415 347.798859,328.440552 
	C348.164856,328.448578 348.540833,328.001007 348.964264,327.423401 
z"/>
<path fill="#987175" opacity="1.000000" stroke="none" 
	d="
M340.721436,336.825378 
	C334.593536,337.133453 333.551605,336.193390 334.001038,331.177887 
	C334.082611,330.267303 333.686981,328.926056 335.045807,328.783875 
	C336.695770,328.611206 336.596924,330.062378 336.779053,331.181641 
	C336.971924,332.366943 336.310730,333.855988 338.101990,334.714355 
	C339.674072,333.566528 338.981140,331.772522 339.297760,330.306671 
	C339.483276,329.447754 339.868988,328.671875 340.842133,328.735504 
	C341.924622,328.806244 342.039062,329.777496 341.959076,330.581421 
	C341.754059,332.642365 342.728912,334.867523 340.721436,336.825378 
z"/>
<path fill="#987175" opacity="1.000000" stroke="none" 
	d="
M317.716156,331.693359 
	C313.802002,331.450104 316.356079,335.678070 313.461182,337.084473 
	C313.384766,333.862762 310.851562,330.669830 314.855072,328.597992 
	C316.278931,327.861176 318.501251,327.812378 319.883484,329.509949 
	C321.397125,331.368866 320.923431,333.576996 320.746368,335.696045 
	C320.686401,336.413605 320.143250,336.875946 319.396149,336.809326 
	C318.655396,336.743286 318.260742,336.214874 318.192627,335.486298 
	C318.085175,334.337494 318.006165,333.186066 317.716156,331.693359 
z"/>
<path fill="#88666C" opacity="1.000000" stroke="none" 
	d="
M299.114258,337.429840 
	C297.079590,336.998352 295.125427,337.253448 294.933655,334.898834 
	C294.684479,331.839111 297.672241,332.363922 299.196228,331.483948 
	C298.871857,329.582397 296.998566,330.740845 296.415314,329.648132 
	C300.603577,327.648773 301.626648,328.440155 302.203064,334.468811 
	C302.775299,337.160767 301.602814,337.806885 299.114258,337.429840 
z"/>
<path fill="#88666C" opacity="1.000000" stroke="none" 
	d="
M262.045349,333.121948 
	C261.828949,334.599670 262.496765,336.336395 261.133850,336.527832 
	C259.386963,336.773193 259.806213,334.925110 259.893768,333.965820 
	C260.043915,332.320770 258.817749,330.034790 261.170502,329.220734 
	C262.648834,328.709229 264.707062,328.107178 265.953369,329.282867 
	C268.156006,331.360657 267.255585,334.057739 266.706726,336.827789 
	C264.205994,335.980255 265.464508,333.965881 264.952698,332.652588 
	C263.999359,330.206421 262.985565,330.266083 262.045349,333.121948 
z"/>
<path fill="#926D72" opacity="1.000000" stroke="none" 
	d="
M330.251495,333.682861 
	C330.533264,335.219116 332.777832,334.815216 332.254974,336.429260 
	C332.139984,336.784210 331.123108,336.972717 330.506653,337.013702 
	C329.170990,337.102478 328.271332,336.446899 328.047913,335.083893 
	C327.780945,333.455048 327.538544,331.819977 327.360229,330.179504 
	C327.220001,328.889252 327.936401,327.936249 328.980194,327.371399 
	C329.929596,326.857635 330.411407,327.930603 331.062836,328.341919 
	C332.646973,329.342163 331.694092,330.090912 330.876709,331.046722 
	C330.405457,331.597778 330.406219,332.552490 330.251495,333.682861 
z"/>
<path fill="#FA8985" opacity="1.000000" stroke="none" 
	d="
M298.745972,337.643677 
	C299.748627,336.625549 301.564148,337.538757 302.157410,335.254272 
	C302.529694,335.410248 302.799194,335.959381 303.121460,336.818115 
	C303.353851,337.883850 303.533508,338.639984 303.815125,339.674042 
	C303.413147,340.598999 302.926361,341.260284 302.400970,341.889374 
	C301.771118,342.643616 301.094604,343.708649 300.066162,343.452911 
	C298.550873,343.076141 299.151215,341.573944 299.014130,340.506287 
	C298.909119,339.688599 298.889435,338.859924 298.745972,337.643677 
z"/>
<path fill="#987175" opacity="1.000000" stroke="none" 
	d="
M272.837585,326.258636 
	C274.595612,328.155884 274.711639,329.843475 272.507446,330.838165 
	C271.155640,331.448212 269.682831,330.700531 269.359833,329.262421 
	C268.827332,326.891479 270.251190,325.980652 272.837585,326.258636 
z"/>
<path fill="#88666C" opacity="1.000000" stroke="none" 
	d="
M324.690735,336.309570 
	C321.626770,334.390167 323.106537,331.834686 323.744812,328.007172 
	C325.647003,331.332458 325.018066,333.695007 324.690735,336.309570 
z"/>
<path fill="#FFE9B3" opacity="1.000000" stroke="none" 
	d="
M133.983398,442.105896 
	C132.638992,452.685516 136.427048,462.506622 136.145172,472.644592 
	C135.986710,478.343842 132.892700,482.552521 129.069534,485.785492 
	C123.535324,490.465302 115.748138,487.248657 113.196922,480.080536 
	C111.044716,474.033600 112.336235,468.238556 114.332436,462.604462 
	C116.424271,456.700562 118.111176,450.925049 115.788025,444.716553 
	C115.494583,443.932281 114.788559,442.185272 116.279556,442.509064 
	C120.865578,443.504913 119.540123,440.074738 120.015511,438.008087 
	C120.933655,434.016693 121.779465,430.008636 123.718018,425.933136 
	C124.121902,427.365662 124.723961,428.774628 124.897423,430.234558 
	C125.997368,439.491974 126.505081,440.180573 133.983398,442.105896 
z"/>
<path fill="#FFE7B3" opacity="1.000000" stroke="none" 
	d="
M125.233383,381.897064 
	C131.770737,391.605835 130.127197,400.226501 122.521469,408.111359 
	C116.428749,404.332062 113.668060,398.002625 115.777008,391.584106 
	C116.037491,390.791351 114.951279,386.221436 118.989388,389.341217 
	C119.881454,390.030396 120.482834,387.302185 120.940414,385.954803 
	C121.622864,383.945282 121.479462,381.089661 125.233383,381.897064 
z"/>
<path fill="#FFE7B3" opacity="1.000000" stroke="none" 
	d="
M306.014648,488.892334 
	C305.502716,489.299957 305.167419,489.391815 304.568970,489.498444 
	C303.138580,489.395416 301.971924,489.522675 300.465088,489.608398 
	C299.632141,489.720978 299.139008,489.747345 298.277405,489.731354 
	C297.908905,489.688995 297.475891,489.571625 297.255737,489.614594 
	C296.368530,489.587189 295.701447,489.516815 294.730347,489.317627 
	C288.894592,482.188324 288.938202,474.492249 291.711731,466.522919 
	C293.590485,461.124634 295.238312,455.752045 293.222473,450.009277 
	C293.064331,449.558807 292.972015,448.664215 293.145508,448.578888 
	C300.194489,445.113281 296.380493,437.395660 299.517303,432.431732 
	C299.676361,432.180023 300.019440,432.044617 300.378021,431.780579 
	C301.636719,433.419922 301.670227,435.357971 302.057159,437.253510 
	C302.895935,441.362793 302.232666,446.952728 309.496307,445.520081 
	C311.230286,445.178070 311.113342,447.111938 310.830200,448.047455 
	C308.939972,454.292816 310.732086,460.316376 312.204346,466.194489 
	C314.399231,474.957672 312.399353,482.244812 306.014648,488.892334 
z"/>
<path fill="#FFE7B3" opacity="1.000000" stroke="none" 
	d="
M294.118774,408.611755 
	C292.642883,405.198944 291.424835,402.070190 292.983368,398.720795 
	C293.533264,397.539062 292.876495,395.185547 295.938416,396.344452 
	C297.434784,396.910828 297.702271,394.377075 297.998199,392.996490 
	C298.370117,391.261261 299.007660,389.538177 300.876282,389.393005 
	C302.819672,389.242035 303.504517,391.143616 304.237427,392.621918 
	C307.733124,399.673004 306.086121,408.697052 300.519623,413.760620 
	C299.452118,414.731689 298.778168,414.410400 298.073944,413.574066 
	C296.792389,412.052094 295.576691,410.474640 294.118774,408.611755 
z"/>
<path fill="#E8D8CD" opacity="1.000000" stroke="none" 
	d="
M65.579254,51.277199 
	C67.318634,51.426617 69.651413,50.116825 69.628044,52.677391 
	C69.615753,54.024853 67.639900,54.092823 66.355789,53.935795 
	C64.752899,53.739788 63.127560,53.343494 65.579254,51.277199 
z"/>
<path fill="#E8D8CD" opacity="1.000000" stroke="none" 
	d="
M67.633186,44.857872 
	C65.279999,44.853436 64.821884,43.728680 65.668945,42.058815 
	C65.892113,41.618877 66.841965,41.098572 67.189445,41.246452 
	C68.927620,41.986195 69.047577,43.254871 67.633186,44.857872 
z"/>
<path fill="#E8D8CD" opacity="1.000000" stroke="none" 
	d="
M388.953979,532.066528 
	C391.669434,531.901794 391.983765,533.449402 391.977295,535.236450 
	C391.971527,536.834473 391.622070,538.351196 389.679077,538.340027 
	C387.914185,538.329956 387.815063,536.797852 387.743591,535.471191 
	C387.681396,534.316772 387.763306,533.168091 388.953979,532.066528 
z"/>
<path fill="#E8D8CD" opacity="1.000000" stroke="none" 
	d="
M97.547745,75.937714 
	C96.953697,77.901108 96.151382,79.145996 94.288017,78.152748 
	C92.682205,77.296776 92.929588,75.662651 93.085983,74.196861 
	C93.218338,72.956451 93.817711,71.918701 95.227310,71.963951 
	C97.582268,72.039566 97.443390,73.923470 97.547745,75.937714 
z"/>
<path fill="#E8D8CD" opacity="1.000000" stroke="none" 
	d="
M374.345459,534.431641 
	C373.618927,532.454041 374.564484,531.085876 375.539703,529.676819 
	C374.839661,531.297546 379.919250,533.637756 374.345459,534.431641 
z"/>
<path fill="#E8D8CD" opacity="1.000000" stroke="none" 
	d="
M125.419388,47.802616 
	C121.859604,49.396366 121.521324,47.131927 121.519905,44.910458 
	C121.518997,43.490696 121.908806,41.543167 123.901222,41.990490 
	C127.246437,42.741539 125.937485,45.409306 125.419388,47.802616 
z"/>
<path fill="#E8D8CD" opacity="1.000000" stroke="none" 
	d="
M979.701965,514.676025 
	C980.911987,515.519348 981.588623,516.417297 979.989380,516.799072 
	C979.131470,517.003906 977.410828,517.742859 977.210815,515.956848 
	C977.081970,514.805969 978.339050,514.548462 979.701965,514.676025 
z"/>
<path fill="#E8D8CD" opacity="1.000000" stroke="none" 
	d="
M56.126583,47.543053 
	C55.051258,48.843426 54.054718,49.393219 53.157299,48.066574 
	C52.920166,47.716026 53.135410,46.596504 53.469078,46.408306 
	C54.533531,45.807903 55.872719,45.051804 56.126583,47.543053 
z"/>
<path fill="#E8D8CD" opacity="1.000000" stroke="none" 
	d="
M113.005501,75.140366 
	C113.135246,72.809448 113.904724,71.477287 116.052063,72.022766 
	C117.577614,72.410294 117.725677,73.878677 117.751137,75.184715 
	C117.777443,76.535072 117.447159,77.941856 115.978935,78.318565 
	C113.778091,78.883240 113.171150,77.383621 113.005501,75.140366 
z"/>
<path fill="#FCB9B1" opacity="1.000000" stroke="none" 
	d="
M66.741806,72.628349 
	C67.959991,71.189812 69.089920,71.147339 70.110184,72.371979 
	C70.327972,72.633392 70.168137,73.209404 70.182266,73.640480 
	C68.940735,73.674637 67.467865,74.860527 66.741806,72.628349 
z"/>
<path fill="#FFEDDF" opacity="1.000000" stroke="none" 
	d="
M990.169556,515.282776 
	C991.451782,514.854675 992.501770,514.741211 993.086792,515.782837 
	C993.187378,515.961792 993.031921,516.481262 992.844788,516.593567 
	C991.567932,517.359680 990.763000,516.367249 990.169556,515.282776 
z"/>
<path fill="#FA8F8A" opacity="1.000000" stroke="none" 
	d="
M300.461426,489.807281 
	C301.199097,488.871429 302.405884,489.113495 303.953369,489.386963 
	C303.136444,489.648773 301.967010,489.784363 300.461426,489.807281 
z"/>
<path fill="#FA8F8A" opacity="1.000000" stroke="none" 
	d="
M297.251099,489.743073 
	C297.216064,489.381073 297.456848,489.312561 297.833435,489.570496 
	C297.908905,489.688995 297.466644,489.828583 297.251099,489.743073 
z"/>
<path fill="#FA8985" opacity="1.000000" stroke="none" 
	d="
M399.987915,247.932098 
	C398.481110,246.515488 399.553192,246.322784 400.575623,246.189240 
	C401.217285,246.105423 402.075592,246.135803 402.125427,246.924606 
	C402.204865,248.182831 401.063141,247.830902 399.987915,247.932098 
z"/>
<path fill="#FA8985" opacity="1.000000" stroke="none" 
	d="
M400.645691,239.273468 
	C401.707306,239.853317 401.930328,240.525040 401.192169,241.181351 
	C400.972626,241.376526 400.283478,241.397766 400.095947,241.211014 
	C399.422363,240.540344 399.645264,239.842163 400.645691,239.273468 
z"/>
<path fill="#FA8985" opacity="1.000000" stroke="none" 
	d="
M439.655609,242.162079 
	C439.866455,240.538254 440.095154,238.967285 441.917023,239.985001 
	C443.225220,240.715775 443.234680,242.296448 442.354645,243.338455 
	C441.118408,244.802246 440.170349,244.060410 439.655609,242.162079 
z"/>
<path fill="#987175" opacity="1.000000" stroke="none" 
	d="
M390.484131,243.289627 
	C391.103210,242.327057 391.743652,241.818726 392.534882,242.355774 
	C392.784485,242.525177 392.928772,243.325653 392.752319,243.562668 
	C392.068695,244.481140 391.219421,244.495911 390.484131,243.289627 
z"/>
<path fill="#FCB9B1" opacity="1.000000" stroke="none" 
	d="
M127.427048,311.246460 
	C128.471237,311.272614 129.561157,310.938965 129.498093,312.157288 
	C129.459488,312.903046 128.618271,312.976990 127.994125,312.927094 
	C126.969604,312.845276 125.896568,312.694977 127.427048,311.246460 
z"/>
<path fill="#FCB9B1" opacity="1.000000" stroke="none" 
	d="
M127.492249,306.253296 
	C127.075340,305.367950 127.114426,304.700958 127.763817,304.403839 
	C127.989975,304.300354 128.705444,304.688812 128.798340,304.979950 
	C129.074478,305.845276 128.812637,306.520294 127.492249,306.253296 
z"/>
<path fill="#FCB9B1" opacity="1.000000" stroke="none" 
	d="
M167.144699,306.959503 
	C167.546722,305.260071 168.264771,304.370911 169.543488,305.595367 
	C170.291443,306.311554 170.304764,307.586853 169.568390,308.303436 
	C168.313644,309.524475 167.568756,308.651184 167.144699,306.959503 
z"/>
<path fill="#FA8F8A" opacity="1.000000" stroke="none" 
	d="
M92.385056,302.363831 
	C92.601730,302.342041 92.678337,302.435516 92.754944,302.528992 
	C92.584961,302.512390 92.414970,302.495758 92.385056,302.363831 
z"/>
<path fill="#FCB9B1" opacity="1.000000" stroke="none" 
	d="
M207.579834,271.601807 
	C207.563507,269.638641 208.784271,270.156494 209.813446,270.366150 
	C209.993103,270.402771 210.265228,270.911804 210.197311,271.088074 
	C209.733231,272.292450 208.725235,271.899841 207.579834,271.601807 
z"/>
<path fill="#FA8F8A" opacity="1.000000" stroke="none" 
	d="
M210.014252,266.016174 
	C208.971588,265.704834 207.544403,265.814026 207.531754,264.184937 
	C207.529282,263.866699 208.108902,263.281433 208.437881,263.268372 
	C209.880753,263.211090 209.814102,264.356598 209.959457,265.686829 
	C210.030640,266.029358 210.000000,266.000000 210.014252,266.016174 
z"/>
<path fill="#FCB9B1" opacity="1.000000" stroke="none" 
	d="
M247.454071,266.618591 
	C247.242294,264.896698 247.462982,263.412903 249.223969,263.719788 
	C250.387741,263.922607 250.830338,265.361664 250.405151,266.526489 
	C249.796524,268.193878 248.750488,268.392029 247.454071,266.618591 
z"/>
<path fill="#FCB9B1" opacity="1.000000" stroke="none" 
	d="
M200.036026,266.328186 
	C200.902802,266.971222 200.788269,267.565948 200.072723,267.858276 
	C199.720886,268.001984 198.903915,267.857422 198.812866,267.633606 
	C198.510788,266.891022 199.128952,266.549988 200.036026,266.328186 
z"/>
<path fill="#FCB9B1" opacity="1.000000" stroke="none" 
	d="
M306.642395,330.601044 
	C307.988068,330.341461 308.200714,331.012695 307.897583,331.857727 
	C307.797333,332.137085 307.113678,332.491852 306.893372,332.389404 
	C306.264893,332.097076 306.174530,331.462860 306.642395,330.601044 
z"/>
<path fill="#FCB9B1" opacity="1.000000" stroke="none" 
	d="
M307.781128,338.853394 
	C306.884430,338.773468 306.069336,338.798370 306.308655,337.902344 
	C306.492584,337.213776 307.188965,337.093079 307.809967,337.261383 
	C308.860107,337.545959 308.970306,338.094513 307.781128,338.853394 
z"/>
<path fill="#FCB9B1" opacity="1.000000" stroke="none" 
	d="
M347.218201,331.155823 
	C349.442932,331.553894 349.143738,332.914948 348.693390,334.184845 
	C348.445374,334.884277 347.618378,335.070770 347.040558,334.647736 
	C345.684418,333.654968 345.863617,332.458771 347.218201,331.155823 
z"/>
<path fill="#FA8985" opacity="1.000000" stroke="none" 
	d="
M297.750549,333.634064 
	C298.583313,333.219391 299.219147,333.207245 299.366394,333.973480 
	C299.411835,334.209900 298.886200,334.758209 298.556396,334.821533 
	C297.916046,334.944397 297.346649,334.708893 297.750549,333.634064 
z"/>
</svg>