<?xml version="1.0" standalone="no"?>
<!DOCTYPE svg PUBLIC "-//W3C//DTD SVG 20010904//EN"
 "http://www.w3.org/TR/2001/REC-SVG-20010904/DTD/svg10.dtd">
<svg version="1.0" xmlns="http://www.w3.org/2000/svg"
 width="600.000000pt" height="458.000000pt" viewBox="0 0 600.000000 458.000000"
 preserveAspectRatio="xMidYMid meet">

<g transform="translate(0.000000,458.000000) scale(0.100000,-0.100000)"
fill="#E3982D" stroke="none">
<path d="M1406 4521 c-2 -3 -9 -33 -15 -66 -6 -33 -20 -71 -31 -85 -11 -14
-25 -36 -30 -49 -6 -14 -27 -47 -48 -75 -34 -46 -37 -56 -35 -109 2 -54 0 -60
-35 -99 l-37 -41 -1 -136 c-2 -257 -9 -365 -23 -386 -7 -11 -42 -36 -77 -55
-67 -36 -197 -143 -202 -167 -2 -8 2 -27 8 -43 18 -43 -2 -92 -50 -125 -22
-15 -40 -34 -40 -41 0 -8 -15 -31 -34 -51 -18 -21 -37 -51 -43 -68 -5 -16 -19
-35 -31 -41 -12 -6 -35 -29 -51 -51 -29 -40 -29 -43 -19 -105 15 -92 13 -105
-18 -144 -16 -20 -35 -47 -42 -60 -8 -15 -22 -24 -38 -24 -26 0 -69 -38 -79
-70 -3 -10 -19 -24 -36 -30 -37 -16 -62 -51 -53 -75 5 -12 0 -23 -16 -35 l-23
-18 35 -48 c49 -67 93 -158 108 -224 7 -30 21 -73 31 -95 16 -36 17 -46 6 -90
-11 -43 -18 -51 -47 -61 -18 -6 -41 -20 -50 -31 -9 -11 -25 -25 -37 -31 -11
-6 -24 -24 -27 -38 -4 -15 -20 -39 -37 -55 -17 -16 -29 -37 -29 -52 0 -19 -16
-40 -62 -79 -115 -99 -121 -106 -113 -156 6 -37 3 -48 -16 -68 -28 -30 -8 -32
39 -4 38 23 58 25 93 6 14 -7 39 -11 55 -9 24 4 37 -2 62 -28 l32 -33 11 33
c9 25 14 29 25 20 8 -6 14 -20 14 -30 0 -11 14 -25 35 -35 20 -9 33 -19 30
-22 -7 -8 16 -33 25 -27 5 3 46 7 93 9 79 3 85 2 75 -14 -8 -12 -8 -29 0 -60
8 -31 8 -47 -1 -61 -18 -29 11 -51 72 -54 37 -2 59 -10 82 -29 36 -31 36 -30
83 -11 47 20 76 7 76 -35 0 -41 -30 -60 -78 -49 -20 5 -43 9 -49 9 -21 0 -15
-49 7 -62 11 -7 20 -18 20 -25 0 -7 10 -21 22 -33 l22 -20 25 24 c55 51 68 52
116 7 25 -23 47 -41 49 -41 3 0 19 28 36 63 38 75 48 86 59 69 4 -7 15 -10 25
-6 9 4 24 0 34 -9 9 -8 27 -18 40 -21 12 -4 26 -16 32 -26 15 -27 47 -14 57
24 7 31 9 40 12 83 0 12 8 28 16 37 19 18 35 60 35 90 0 13 6 29 14 35 12 10
15 6 21 -19 4 -17 14 -34 23 -37 21 -8 97 -86 106 -108 3 -10 12 -15 19 -12 9
3 13 -7 13 -35 1 -29 9 -47 30 -69 32 -33 44 -36 44 -12 0 13 3 14 12 5 7 -7
24 -12 38 -12 14 0 31 -5 37 -11 12 -12 76 5 105 29 11 9 18 10 23 2 3 -5 11
-8 16 -4 16 10 68 -16 74 -37 4 -10 11 -19 16 -19 5 0 9 -7 9 -15 0 -9 7 -18
15 -21 8 -3 24 -21 36 -40 11 -19 29 -34 38 -34 10 0 38 -15 62 -33 74 -55 97
-67 130 -67 17 0 42 -9 56 -20 14 -11 31 -20 38 -20 7 0 23 -8 36 -19 13 -10
50 -21 81 -25 31 -4 62 -14 69 -22 13 -16 45 -19 54 -4 3 5 10 10 16 10 16 0
69 -56 69 -74 0 -21 47 -125 68 -148 10 -12 30 -18 58 -18 41 0 43 -1 50 -35
5 -28 11 -35 29 -35 18 0 26 11 46 72 13 40 30 77 37 81 6 4 12 16 12 25 0 9
9 28 19 41 l18 24 22 -22 c11 -11 30 -21 40 -21 28 0 78 50 87 85 10 42 22 55
54 55 23 0 31 7 44 39 18 46 36 59 74 53 58 -8 71 -29 73 -119 3 -90 12 -123
31 -123 7 0 24 -9 38 -20 14 -11 33 -20 42 -20 9 0 21 -6 25 -12 9 -15 89 -58
108 -58 7 0 30 18 51 40 22 22 48 40 60 40 18 0 22 8 27 57 3 31 3 69 0 85 -4
22 -2 28 11 28 9 0 19 -7 22 -15 9 -21 44 -19 69 5 25 23 51 18 60 -11 4 -10
16 -24 27 -30 17 -9 24 -7 45 15 29 31 39 33 46 6 6 -25 44 -26 73 -2 53 45
60 116 14 157 -25 23 -25 52 0 90 24 36 26 78 5 95 -8 7 -15 18 -15 24 1 21
52 59 88 65 30 5 38 11 40 31 4 28 49 80 68 80 26 0 45 61 38 123 -4 34 -3 58
2 55 5 -2 23 -10 39 -17 17 -7 40 -18 53 -24 12 -6 28 -22 35 -36 11 -24 17
-26 62 -23 71 5 103 38 110 112 14 148 20 170 45 170 9 0 25 9 35 20 17 19 18
27 8 75 -7 29 -9 62 -6 73 4 15 -2 20 -26 25 -39 8 -53 36 -25 51 29 17 84 78
78 88 -3 4 -20 8 -37 8 -38 1 -77 30 -77 58 0 38 19 72 40 72 11 0 30 11 42
25 13 15 32 25 48 25 33 0 70 38 70 72 0 22 -8 29 -51 44 -65 24 -77 38 -50
61 27 22 27 61 0 120 -11 25 -18 47 -15 50 3 3 -6 15 -20 26 -17 13 -24 26
-21 38 3 11 2 21 -3 24 -4 2 -10 18 -13 35 -5 22 0 39 18 66 29 43 29 43 10
80 -8 16 -15 36 -15 44 0 9 -6 24 -13 35 -8 11 -14 37 -14 58 -1 37 4 41 47
38 8 0 22 3 30 9 12 7 7 17 -30 50 -61 55 -68 60 -78 60 -10 0 -52 43 -52 54
0 4 7 14 15 23 10 9 12 20 7 27 -13 16 -14 114 -1 121 24 16 29 55 12 110 -18
59 -15 57 -108 59 -49 2 -139 34 -162 58 -21 23 -21 24 -5 95 20 86 34 98 117
106 63 6 135 27 135 39 0 5 16 8 36 8 70 0 121 68 113 148 -2 15 0 33 5 40 4
7 3 18 -2 25 -20 24 -25 103 -8 128 8 14 14 42 13 66 -1 37 -5 44 -30 53 -16
5 -33 7 -38 4 -5 -3 -21 3 -37 14 -21 15 -33 17 -52 10 -14 -5 -34 -7 -44 -4
-11 3 -26 0 -34 -7 -12 -9 -19 -6 -36 15 -11 14 -32 28 -46 30 -17 2 -26 10
-28 26 -2 12 -10 22 -17 22 -8 0 -17 9 -20 20 -5 16 -12 19 -33 14 -38 -9 -42
-13 -36 -29 4 -10 -5 -16 -33 -20 -59 -10 -63 -13 -63 -39 l0 -24 -39 21 c-29
16 -44 34 -59 69 -15 36 -26 48 -41 48 -14 0 -27 11 -38 35 -9 19 -23 35 -30
35 -8 0 -33 20 -56 44 -32 34 -52 46 -84 51 -34 5 -43 4 -43 -8 0 -24 -25 -27
-57 -7 -17 10 -44 19 -59 21 -36 3 -109 -17 -142 -39 -27 -18 -29 -17 -63 45
-9 16 -32 37 -52 46 -20 10 -38 26 -42 36 -3 10 -17 24 -31 32 -24 12 -28 12
-49 -13 -12 -14 -32 -31 -45 -38 -20 -11 -26 -8 -65 37 -40 45 -44 47 -61 32
-11 -9 -34 -20 -51 -24 -24 -5 -37 -16 -49 -42 -14 -28 -21 -33 -38 -28 -12 4
-34 8 -51 8 -25 2 -31 7 -33 31 -2 16 -13 37 -25 46 -18 15 -23 15 -35 4 -7
-8 -19 -14 -27 -14 -7 0 -22 -16 -34 -35 -11 -19 -24 -35 -28 -36 -4 -1 -23
-2 -41 -4 -42 -3 -51 -12 -59 -56 -10 -60 -4 -111 14 -125 25 -19 7 -17 -22 2
-13 9 -32 13 -43 10 -13 -5 -22 1 -32 19 -17 31 -25 31 -55 -1 l-23 -25 -54
24 c-75 34 -92 41 -103 38 -5 -2 -27 -3 -47 -3 -21 1 -42 -6 -49 -14 -11 -13
-15 -12 -33 10 -14 17 -35 28 -63 32 -36 6 -43 4 -54 -17 -7 -13 -18 -28 -24
-34 -23 -19 -25 -44 -4 -58 21 -16 17 -43 -10 -64 -25 -19 -35 -15 -54 20 -10
18 -40 55 -68 82 -27 27 -47 55 -45 62 3 7 -8 28 -24 46 -25 28 -31 31 -49 20
-31 -19 -79 -16 -90 6 -8 14 -27 20 -77 26 -73 8 -114 35 -114 75 0 32 -40 80
-67 80 -28 0 -46 32 -39 68 7 35 -33 69 -63 52 -16 -8 -20 -6 -23 7 -3 15 -45
27 -52 14z"/>
</g>
</svg>
