<?xml version="1.0" standalone="no"?>
<!DOCTYPE svg PUBLIC "-//W3C//DTD SVG 20010904//EN"
 "http://www.w3.org/TR/2001/REC-SVG-20010904/DTD/svg10.dtd">
<svg version="1.0" xmlns="http://www.w3.org/2000/svg"
 width="500.000000pt" height="458.000000pt" viewBox="0 0 500.000000 458.000000"
 preserveAspectRatio="xMidYMid meet">

<g transform="translate(0.000000,391.000000) scale(0.100000,-0.100000)"
fill="#FD3B04" stroke="none">
<path d="M420 3685 c-6 -8 -28 -20 -47 -27 -28 -10 -33 -16 -28 -33 4 -11 9
-31 11 -45 2 -14 7 -39 10 -56 5 -25 1 -36 -20 -57 -31 -32 -32 -40 -5 -106
20 -47 21 -57 10 -114 -24 -120 -24 -155 -1 -243 12 -50 19 -97 15 -113 -8
-37 -89 -224 -115 -266 -14 -22 -22 -58 -26 -121 -7 -98 -16 -124 -42 -124
-16 -1 -16 -1 -1 -10 9 -5 19 -21 23 -34 5 -20 12 -24 48 -25 24 -1 52 -2 63
-3 11 0 28 2 38 7 14 6 17 2 17 -30 0 -20 5 -46 12 -58 19 -35 17 -58 -7 -67
-12 -5 -25 -15 -28 -22 -10 -27 6 -73 35 -98 25 -22 28 -31 28 -85 0 -67 11
-85 51 -85 22 0 26 -4 22 -20 -3 -11 -1 -21 3 -21 5 -1 32 -2 59 -4 61 -3 58
-1 44 -26 -9 -17 -7 -25 12 -45 18 -20 28 -22 65 -17 36 5 44 2 56 -16 7 -11
22 -21 34 -21 12 0 29 -11 38 -25 9 -14 27 -27 41 -31 26 -6 78 -90 90 -145 4
-16 11 -29 17 -29 5 0 0 -16 -11 -36 -12 -19 -18 -41 -14 -47 18 -27 31 -82
27 -106 -5 -23 2 -31 54 -66 54 -36 57 -41 39 -50 -36 -18 -44 -41 -25 -73 30
-50 -9 -63 -122 -42 -66 12 -93 -3 -97 -55 -1 -19 2 -37 6 -39 4 -3 54 -12
110 -21 72 -12 106 -13 115 -6 9 7 19 6 34 -5 12 -8 31 -13 41 -9 13 4 23 0
29 -11 8 -15 12 -14 27 10 10 15 18 42 18 59 -1 61 45 79 67 27 12 -29 14 -30
31 -14 25 22 37 10 15 -14 -21 -24 -11 -59 12 -40 18 16 64 11 75 -8 10 -18
37 -6 37 16 0 10 9 22 20 25 11 3 20 11 20 16 0 26 41 -17 71 -76 18 -36 44
-75 56 -87 13 -12 23 -27 23 -35 0 -8 13 -13 35 -13 20 0 48 -6 63 -14 15 -7
45 -17 68 -20 22 -4 67 -25 100 -46 79 -53 83 -57 90 -87 5 -19 2 -28 -12 -36
-10 -6 -31 -23 -46 -39 -14 -15 -34 -28 -43 -28 -9 0 -30 -8 -46 -17 -24 -14
-29 -23 -24 -41 4 -15 -1 -32 -14 -49 -18 -22 -19 -27 -6 -40 17 -16 20 -63 5
-63 -5 0 -10 -6 -10 -14 0 -8 -5 -16 -12 -18 -8 -3 -8 -21 2 -71 7 -38 15 -66
19 -64 3 2 21 9 39 16 17 7 32 17 32 22 0 16 70 9 110 -11 34 -18 40 -18 54
-5 8 8 25 15 37 15 12 0 30 6 38 14 26 22 76 29 90 12 7 -8 33 -18 58 -22 51
-7 63 2 63 50 0 27 2 28 36 23 21 -4 52 -21 76 -42 28 -26 45 -34 56 -29 10 4
37 9 62 12 24 2 54 11 66 19 13 8 40 16 62 17 46 3 149 59 156 84 2 9 7 33 11
52 12 72 120 103 205 60 24 -12 49 -18 67 -14 24 4 31 0 51 -31 27 -42 40 -43
77 -9 25 23 33 25 79 20 38 -5 56 -3 71 8 23 17 71 21 80 6 8 -12 42 -13 49
-1 3 5 1 23 -5 40 -10 27 -7 39 16 85 21 41 25 58 17 72 -7 12 -7 25 0 40 8
17 5 29 -16 60 l-25 38 40 17 c59 27 163 10 143 -23 -3 -5 5 -22 19 -36 13
-15 29 -40 34 -57 7 -22 24 -38 69 -62 32 -17 62 -32 67 -32 4 -1 13 11 19 25
11 23 16 25 52 20 87 -11 105 -19 146 -62 33 -35 46 -43 65 -38 13 3 32 1 43
-5 14 -7 23 -8 27 -1 3 6 18 7 32 4 23 -6 72 4 130 27 18 7 30 2 57 -21 31
-28 39 -30 115 -30 44 0 81 2 81 4 0 3 -14 25 -30 49 -17 25 -30 58 -30 75 0
21 -6 31 -20 35 -15 4 -20 14 -21 44 -1 21 -1 43 0 49 1 6 -14 33 -32 60 -23
35 -47 56 -85 74 -28 14 -52 28 -52 31 0 16 71 19 92 4 29 -20 68 -19 110 2
18 9 40 19 48 23 23 10 53 77 46 103 -5 20 -12 23 -56 23 -71 0 -85 16 -65 74
9 25 23 55 31 68 14 21 14 26 -1 48 -11 17 -25 24 -48 24 -45 0 -59 12 -55 46
2 20 8 28 19 26 30 -5 69 54 69 103 0 25 7 66 16 92 11 32 16 77 15 140 -2 98
-3 97 47 92 4 0 12 -17 17 -36 17 -59 35 -63 112 -23 85 44 91 66 38 129 -19
24 -38 55 -41 70 -4 14 -12 35 -17 46 -14 26 -17 306 -4 323 5 7 11 31 12 55
1 23 4 51 6 61 3 14 -8 25 -40 43 -25 13 -47 26 -50 29 -6 6 -9 44 -11 156 -2
75 -3 78 -35 103 -19 14 -43 25 -54 25 -11 0 -23 5 -26 10 -3 6 -13 10 -20 10
-21 0 -87 -61 -81 -75 8 -22 -22 -52 -51 -52 -34 0 -73 -44 -73 -81 0 -18 -13
-38 -41 -64 -23 -21 -45 -38 -50 -38 -5 0 -24 14 -42 30 -19 17 -39 30 -45 30
-12 0 -62 -83 -62 -103 0 -8 -6 -17 -14 -20 -7 -3 -19 -27 -25 -54 -17 -70
-44 -133 -57 -133 -6 0 -14 18 -18 39 -7 48 -11 50 -78 58 -40 4 -58 12 -75
32 -12 14 -22 32 -23 39 0 8 -7 28 -16 45 -31 59 -34 67 -34 86 0 17 -80 101
-96 101 -4 0 -16 -7 -26 -17 -16 -15 -21 -15 -51 -1 -49 24 -100 38 -135 38
-17 0 -34 5 -38 11 -3 6 -31 22 -60 35 -30 13 -54 28 -54 32 0 5 -24 12 -54
15 -42 4 -69 15 -118 48 -35 23 -71 50 -81 61 -10 10 -29 18 -42 18 -17 0 -32
11 -49 36 -13 20 -33 42 -45 50 -12 9 -21 21 -21 29 0 35 -105 115 -131 100
-4 -3 -17 0 -27 6 -21 13 -57 5 -47 -11 3 -5 -2 -10 -12 -10 -10 0 -32 -8 -49
-19 -25 -15 -33 -16 -48 -6 -10 8 -40 19 -68 25 -40 10 -52 10 -58 0 -11 -19
-29 -3 -23 20 4 15 0 20 -16 20 -22 0 -24 5 -25 70 -1 28 -5 36 -23 38 -13 2
-23 10 -23 18 0 8 -7 17 -15 20 -8 4 -15 15 -15 25 0 10 -5 19 -10 19 -6 0
-24 14 -40 30 -16 17 -36 30 -43 30 -17 0 -38 45 -31 65 8 19 -23 31 -45 18
-11 -7 -23 -8 -34 -1 -25 13 -34 -18 -12 -42 13 -14 16 -28 11 -55 -4 -19 -11
-35 -16 -35 -6 0 -10 -7 -10 -15 0 -8 -4 -15 -10 -15 -5 0 -10 -7 -10 -15 0
-8 -4 -15 -10 -15 -5 0 -10 -22 -10 -48 0 -27 -3 -52 -7 -55 -3 -4 -8 -19 -9
-33 -4 -35 -13 -42 -27 -23 -18 24 -170 99 -200 99 -17 0 -28 -7 -34 -23 -4
-12 -23 -50 -42 -85 -33 -61 -51 -77 -51 -47 0 8 -5 15 -12 15 -6 0 -23 14
-38 31 -22 27 -30 31 -57 25 -17 -4 -49 -22 -71 -41 -37 -32 -40 -33 -55 -17
-8 9 -18 27 -21 39 -4 12 -15 25 -25 28 -11 3 -21 15 -24 25 -6 23 6 25 66 11
31 -8 45 -6 72 10 27 17 34 27 37 62 3 36 0 45 -26 69 -36 33 -37 33 -78 8
-46 -28 -84 -26 -104 5 -10 15 -26 25 -40 25 -12 0 -26 5 -30 11 -4 7 -22 9
-45 6 -43 -6 -89 17 -70 36 14 14 14 82 0 109 -8 15 -8 26 1 44 18 32 6 57
-22 48 -13 -4 -30 -6 -38 -5 -26 4 -134 1 -152 -5 -13 -4 -18 0 -18 13 0 17
-19 28 -73 47 -12 4 -16 12 -13 24 4 12 -4 29 -25 50 -39 40 -49 40 -49 3 0
-35 -19 -51 -32 -27 -5 9 -15 16 -22 16 -8 0 -16 6 -19 14 -7 17 -68 19 -80 2
-6 -8 -10 -7 -14 2 -2 6 -13 12 -24 12 -10 0 -19 5 -19 10 0 16 -76 12 -90 -5z"/>
</g>
</svg>
