<?xml version="1.0" standalone="no"?>
<!DOCTYPE svg PUBLIC "-//W3C//DTD SVG 20010904//EN"
 "http://www.w3.org/TR/2001/REC-SVG-20010904/DTD/svg10.dtd">
<svg version="1.0" xmlns="http://www.w3.org/2000/svg"
 width="600.000000pt" height="550.000000pt" viewBox="0 0 600.000000 550.000000"
 preserveAspectRatio="xMidYMid meet">

<g transform="translate(0.000000,525.000000) scale(0.100000,-0.100000)"
fill="#7F0E05" stroke="none">
<path d="M2043 5188 c-22 -49 -33 -98 -28 -121 5 -17 0 -30 -19 -48 -17 -16
-23 -31 -20 -46 4 -15 0 -25 -15 -33 -19 -10 -22 -8 -28 20 -4 22 -10 29 -20
26 -8 -4 -17 -6 -19 -6 -2 0 -4 -19 -4 -43 0 -31 -6 -47 -22 -61 l-22 -19 22
-18 c12 -9 22 -29 22 -43 0 -15 8 -30 20 -36 26 -14 26 -53 -2 -97 -19 -32
-20 -37 -6 -62 17 -29 12 -60 -15 -91 -10 -12 -15 -26 -11 -32 12 -19 -16 -25
-89 -21 -134 8 -167 32 -143 100 7 21 16 68 20 105 6 61 5 68 -15 82 -27 18
-39 13 -39 -19 0 -13 -5 -27 -11 -31 -6 -3 -9 -15 -6 -25 3 -10 1 -21 -3 -24
-4 -3 -8 -22 -8 -42 0 -22 -6 -41 -16 -49 -9 -6 -16 -16 -16 -22 0 -6 -6 -12
-12 -15 -20 -7 23 -49 44 -44 13 4 18 -1 18 -15 0 -22 -18 -60 -34 -70 -19
-13 -56 -9 -56 6 0 8 -7 17 -16 20 -22 9 -24 8 -24 -9 0 -9 -7 -18 -15 -21 -8
-4 -15 -12 -15 -20 0 -8 -4 -14 -9 -14 -5 0 -7 -8 -4 -18 3 -11 13 -18 30 -17
25 0 35 -10 48 -50 7 -20 7 -19 22 3 11 16 25 22 53 22 46 0 118 -31 147 -62
30 -33 76 -143 69 -165 -8 -25 21 -133 41 -155 11 -13 31 -18 68 -18 69 0 96
-30 60 -66 -17 -18 -20 -57 -5 -84 7 -12 7 -27 0 -45 -6 -15 -7 -32 -3 -38 4
-7 8 -35 9 -63 1 -28 10 -66 19 -85 29 -56 93 -116 131 -123 18 -4 47 -18 63
-31 19 -16 41 -25 64 -25 53 0 54 -17 2 -25 -41 -6 -49 -3 -82 24 -21 17 -48
31 -62 31 -24 0 -121 51 -138 73 -6 6 -17 40 -27 74 -22 82 -15 296 11 325 26
29 5 42 -50 31 -72 -16 -110 15 -120 97 -7 57 -47 182 -69 218 -11 19 -31 34
-46 38 -15 3 -46 10 -70 16 -45 11 -61 7 -45 -14 25 -35 10 -240 -27 -362 -18
-59 -18 -60 4 -90 11 -17 22 -33 24 -36 2 -2 12 1 23 8 23 15 20 20 44 -95 18
-90 15 -104 -40 -152 -17 -14 -24 -28 -20 -40 3 -10 -1 -24 -10 -31 -8 -7 -15
-18 -15 -26 0 -18 -112 -144 -128 -144 -8 0 -47 -18 -89 -40 -74 -40 -77 -41
-166 -38 l-91 3 -27 40 -27 41 -86 -2 c-62 -1 -89 3 -97 12 -6 8 -18 14 -25
14 -9 0 -14 11 -14 29 0 16 -7 34 -15 41 -8 7 -15 19 -15 26 0 8 -3 14 -8 14
-15 0 -82 -62 -82 -75 0 -8 -9 -19 -20 -25 -11 -6 -20 -21 -20 -34 0 -13 -6
-29 -14 -35 -11 -9 -14 -31 -12 -79 2 -48 -2 -74 -13 -92 -9 -13 -11 -21 -4
-17 33 21 15 -50 -25 -95 -14 -16 -13 -18 3 -18 15 0 17 -6 12 -36 -5 -27 -3
-35 7 -31 30 12 110 -56 122 -103 4 -14 15 -36 24 -50 9 -14 22 -39 27 -56 9
-25 8 -32 -6 -41 -14 -9 -14 -13 -2 -35 19 -36 14 -129 -7 -136 -6 -2 -26 -19
-46 -38 -32 -31 -35 -39 -30 -73 4 -28 2 -42 -11 -54 -9 -10 -20 -15 -25 -12
-19 12 -18 -65 2 -105 14 -27 21 -63 22 -106 0 -35 5 -64 10 -64 5 0 3 -7 -4
-15 -11 -13 -5 -23 32 -63 159 -170 302 -429 378 -682 54 -183 61 -326 23
-462 -12 -46 -22 -61 -49 -77 -42 -25 -53 -63 -30 -101 9 -16 16 -35 16 -44 0
-9 5 -24 11 -34 9 -14 8 -27 -6 -55 -9 -20 -14 -41 -10 -47 3 -5 -2 -22 -13
-38 -20 -29 -22 -101 -6 -225 8 -66 16 -76 41 -47 10 11 23 20 30 20 8 0 18
11 23 24 6 18 20 27 45 32 28 5 35 11 35 30 0 13 5 24 10 24 6 0 10 6 10 14 0
8 10 18 23 22 12 4 25 11 29 17 3 6 18 11 32 13 20 2 35 -8 66 -43 34 -39 40
-53 40 -89 0 -31 6 -50 20 -64 23 -23 29 -24 65 -10 23 9 26 14 20 38 -3 15
-14 35 -22 45 -15 15 -14 19 3 38 19 21 18 21 -2 37 -12 10 -30 22 -40 28 -17
10 -17 15 -6 34 19 32 -1 80 -35 80 -32 0 -40 26 -18 64 35 60 126 151 169
167 29 12 42 23 44 40 2 13 13 29 23 37 10 7 19 19 19 25 0 13 54 47 75 47 23
0 45 30 45 62 0 29 1 30 38 23 31 -5 41 -2 57 15 16 18 17 25 7 53 -8 20 -8
35 -2 41 11 11 14 75 4 100 -8 20 -97 66 -128 66 -15 0 -30 8 -36 20 -6 12
-21 20 -35 20 -14 0 -25 5 -25 10 0 6 -7 10 -15 10 -20 0 -18 14 13 89 22 53
32 66 56 72 37 10 86 57 79 75 -3 8 0 21 7 29 13 16 7 75 -12 105 -6 9 -8 29
-4 43 5 21 13 27 32 27 34 0 107 73 124 125 7 22 19 44 27 48 11 7 9 14 -12
39 l-26 31 25 26 c15 15 26 33 26 39 0 29 -26 92 -37 92 -7 0 -13 6 -13 13 0
20 -53 14 -84 -11 -36 -28 -43 -28 -52 1 -3 12 -13 30 -22 40 -14 15 -13 17 1
17 10 0 17 7 17 15 0 9 9 15 23 15 26 0 47 17 47 39 0 8 8 23 17 34 17 18 17
20 -6 38 l-23 19 27 10 c35 13 40 13 55 -5 17 -20 36 -19 69 6 20 14 46 22 82
23 30 1 64 7 76 14 12 7 35 12 51 12 17 0 37 9 48 21 15 17 26 19 65 14 34 -5
56 -2 78 9 22 12 31 13 31 4 0 -19 52 -68 72 -68 10 0 27 -5 37 -12 15 -9 26
-9 45 0 20 9 33 8 61 -4 42 -17 52 -36 36 -71 -6 -14 -10 -27 -9 -29 2 -1 25
2 52 8 31 6 51 7 58 0 10 -10 67 5 79 22 4 4 16 3 27 -3 14 -7 23 -8 27 -1 11
17 67 42 76 33 4 -4 10 -32 13 -61 2 -29 9 -59 15 -66 6 -7 8 -28 5 -47 -7
-41 18 -99 71 -164 18 -22 49 -66 69 -97 32 -51 41 -58 89 -72 29 -9 61 -24
71 -35 13 -15 32 -19 93 -19 67 -1 79 -4 103 -27 14 -14 30 -25 36 -25 5 0 21
-15 35 -33 14 -18 43 -41 64 -52 50 -26 68 -44 84 -83 16 -38 55 -72 83 -72
10 0 30 -7 43 -16 21 -14 30 -14 55 -4 16 7 35 10 42 8 7 -3 21 6 31 19 26 33
52 29 77 -12 12 -19 30 -40 41 -45 10 -6 19 -19 19 -30 0 -10 11 -30 24 -43
12 -13 25 -28 27 -34 2 -6 18 -14 36 -17 26 -6 32 -4 37 12 4 10 23 28 44 38
20 10 39 21 42 24 3 3 27 12 53 22 61 20 96 8 150 -51 42 -47 44 -65 21 -160
l-17 -65 27 -21 c29 -23 35 -55 10 -55 -12 0 -15 -7 -11 -26 3 -16 0 -28 -9
-31 -21 -8 -17 -20 16 -50 35 -31 41 -73 10 -73 -13 0 -20 -7 -20 -20 0 -22
15 -38 89 -97 40 -31 46 -33 57 -18 6 9 15 36 18 59 4 24 17 56 29 69 12 14
29 36 38 49 16 22 17 22 43 5 26 -17 28 -17 57 4 25 17 29 26 24 49 -6 25 -4
27 19 23 17 -4 28 0 32 10 7 20 72 59 84 52 33 -20 105 100 93 155 -4 24 0 34
27 57 29 24 42 27 107 28 69 2 75 0 83 -21 13 -34 29 -38 55 -14 24 22 27 23
112 12 48 -6 103 -14 121 -18 27 -5 38 -2 57 16 39 37 78 31 130 -20 l45 -44
29 17 c16 9 39 17 50 17 12 0 24 7 27 15 9 23 -4 65 -21 65 -7 0 -23 13 -35
29 -11 17 -29 33 -40 36 -11 4 -18 11 -14 16 7 13 -14 118 -32 151 -8 14 -14
34 -14 43 0 9 -13 21 -30 27 -40 13 -50 35 -50 104 0 47 -6 66 -31 106 -23 35
-37 48 -55 48 -30 0 -22 28 13 41 39 14 39 36 0 74 -40 39 -54 72 -38 88 18
18 13 37 -19 74 -16 18 -30 42 -30 53 0 10 -11 32 -25 48 -22 26 -23 31 -10
48 9 13 12 32 8 57 -3 21 -1 48 5 60 5 12 13 30 15 39 4 10 13 15 24 12 11 -3
33 8 56 26 42 36 48 73 22 136 -13 31 -13 38 1 59 8 12 21 51 28 86 14 70 4
115 -35 152 -10 10 -19 26 -19 35 0 29 -29 62 -55 62 -30 0 -37 11 -37 58 0
20 -11 65 -24 99 -30 77 -33 153 -6 153 23 0 82 71 82 98 0 14 7 20 26 20 14
0 36 10 49 22 l24 23 -25 43 c-35 60 -30 91 24 127 25 17 42 36 42 48 0 17 -8
19 -74 19 -54 0 -77 4 -86 16 -25 29 -45 33 -90 18 -24 -8 -55 -14 -69 -14
-14 1 -30 1 -36 0 -39 -8 -80 4 -106 32 -49 54 -161 78 -174 38 -8 -25 -11
-25 -60 3 -22 13 -48 38 -58 57 -48 95 -48 95 -113 93 -118 -4 -117 -4 -79
-60 17 -25 21 -41 15 -53 -5 -9 -5 -22 0 -30 5 -8 0 -28 -12 -52 -14 -27 -19
-49 -15 -73 5 -33 -5 -47 -18 -25 -9 14 -58 13 -73 -2 -6 -6 -33 -11 -61 -9
-40 2 -53 -2 -71 -21 l-21 -23 -28 34 c-22 27 -33 33 -53 28 -15 -4 -33 0 -48
10 -13 9 -44 17 -69 17 -62 1 -107 -32 -116 -85 -6 -32 -14 -42 -52 -65 -25
-14 -58 -26 -72 -26 -14 0 -36 -6 -48 -14 -12 -8 -37 -14 -56 -14 -18 0 -38
-5 -44 -11 -9 -9 -21 -4 -48 20 -27 24 -45 31 -76 31 -34 0 -39 -3 -35 -17 9
-30 -8 -46 -43 -38 -17 3 -34 13 -39 21 -6 11 -15 11 -44 3 -21 -5 -40 -14
-43 -19 -4 -6 -16 -10 -29 -10 -12 0 -27 -5 -33 -11 -8 -8 -19 -6 -41 5 -40
20 -76 20 -108 0 -29 -19 -39 -12 -47 32 -4 23 -1 35 14 48 16 13 19 24 13 49
-8 35 -8 39 2 82 7 33 29 55 54 55 9 0 35 17 58 39 l42 38 -15 37 c-8 20 -20
36 -25 36 -6 0 -29 12 -52 28 -39 25 -137 60 -184 65 -26 2 -63 46 -94 110
-32 65 -43 72 -80 57 -16 -7 -30 -18 -30 -25 0 -10 -9 -11 -40 -3 -32 8 -38
13 -30 24 15 17 -21 39 -37 23 -8 -8 -13 -5 -18 10 -7 23 -43 29 -63 9 -7 -7
-12 -29 -12 -49 0 -36 -2 -38 -32 -37 -18 0 -37 3 -43 7 -5 3 -32 6 -60 7 -27
0 -74 4 -102 8 -51 8 -53 9 -47 34 10 40 17 44 65 33 78 -18 108 -14 115 14 4
15 1 32 -6 40 -16 19 3 45 31 45 30 0 22 16 -18 41 -50 31 -69 51 -65 70 2 9
-3 34 -11 57 -10 28 -11 44 -4 51 16 16 19 81 4 81 -7 0 -23 25 -36 55 -13 30
-30 55 -38 55 -8 0 -25 11 -39 25 -14 14 -30 25 -35 25 -6 0 -22 9 -36 20 -18
14 -33 17 -55 13 -36 -7 -49 9 -41 49 6 29 6 29 -41 24 -43 -4 -47 -2 -44 17
3 18 -2 22 -27 22 -29 0 -30 2 -35 52 -3 33 -13 61 -26 76 -12 13 -24 36 -28
51 -6 23 -3 29 14 33 11 3 21 9 21 14 1 5 2 15 3 22 1 6 -4 21 -11 32 -7 11
-13 37 -13 58 0 33 -3 38 -17 32 -19 -8 -25 -9 -85 -4 -29 2 -38 7 -38 21 0
25 -25 23 -37 -4z"/>
<path d="M1723 4753 c-5 -16 -6 -39 -3 -53 l7 -25 12 28 c13 34 15 77 2 77 -5
0 -13 -12 -18 -27z"/>
<path d="M817 3823 c-4 -3 -7 -24 -7 -45 0 -22 -4 -47 -9 -56 -6 -12 -1 -35
18 -74 14 -32 29 -58 33 -58 3 0 9 13 13 29 10 48 29 57 70 32 44 -26 53 -27
33 -3 -8 9 -18 25 -21 34 -3 9 -29 29 -57 43 -44 22 -49 29 -44 49 3 13 1 27
-5 31 -6 3 -9 11 -6 16 7 10 -8 12 -18 2z"/>
<path d="M51 470 c-9 -5 -8 -10 4 -20 9 -7 13 -21 10 -31 -3 -9 -1 -20 5 -24
6 -4 8 -20 4 -40 -5 -27 -2 -35 14 -44 11 -6 22 -21 24 -33 4 -28 74 -66 91
-49 6 6 8 11 3 11 -4 0 2 12 13 26 12 15 21 34 21 44 0 21 -131 155 -158 162
-11 3 -25 2 -31 -2z"/>
<path d="M160 150 c0 -5 5 -10 11 -10 5 0 7 5 4 10 -3 6 -8 10 -11 10 -2 0 -4
-4 -4 -10z"/>
</g>
</svg>
